<svg width="23" height="24" viewBox="0 0 23 24" fill="none" xmlns="http://www.w3.org/2000/svg">
<path d="M1.8916 12.0621C1.8916 7.60339 1.8916 5.37404 3.27675 3.9889C4.66188 2.60376 6.89123 2.60376 11.3499 2.60376C15.8086 2.60376 18.038 2.60376 19.4231 3.9889C20.8083 5.37404 20.8083 7.60339 20.8083 12.0621C20.8083 16.5208 20.8083 18.7502 19.4231 20.1353C18.038 21.5204 15.8086 21.5204 11.3499 21.5204C6.89123 21.5204 4.66188 21.5204 3.27675 20.1353C1.8916 18.7502 1.8916 16.5208 1.8916 12.0621Z" stroke="#002F0F" stroke-width="1.3125"/>
<path d="M1.8916 12.0621C1.8916 7.60339 1.8916 5.37404 3.27675 3.9889C4.66188 2.60376 6.89123 2.60376 11.3499 2.60376C15.8086 2.60376 18.038 2.60376 19.4231 3.9889C20.8083 5.37404 20.8083 7.60339 20.8083 12.0621C20.8083 16.5208 20.8083 18.7502 19.4231 20.1353C18.038 21.5204 15.8086 21.5204 11.3499 21.5204C6.89123 21.5204 4.66188 21.5204 3.27675 20.1353C1.8916 18.7502 1.8916 16.5208 1.8916 12.0621Z" stroke="#002F0F" stroke-opacity="0.2" stroke-width="1.3125"/>
<path d="M1.8916 12.0621C1.8916 7.60339 1.8916 5.37404 3.27675 3.9889C4.66188 2.60376 6.89123 2.60376 11.3499 2.60376C15.8086 2.60376 18.038 2.60376 19.4231 3.9889C20.8083 5.37404 20.8083 7.60339 20.8083 12.0621C20.8083 16.5208 20.8083 18.7502 19.4231 20.1353C18.038 21.5204 15.8086 21.5204 11.3499 21.5204C6.89123 21.5204 4.66188 21.5204 3.27675 20.1353C1.8916 18.7502 1.8916 16.5208 1.8916 12.0621Z" stroke="#002F0F" stroke-opacity="0.2" stroke-width="1.3125"/>
<path d="M1.8916 12.0621C1.8916 7.60339 1.8916 5.37404 3.27675 3.9889C4.66188 2.60376 6.89123 2.60376 11.3499 2.60376C15.8086 2.60376 18.038 2.60376 19.4231 3.9889C20.8083 5.37404 20.8083 7.60339 20.8083 12.0621C20.8083 16.5208 20.8083 18.7502 19.4231 20.1353C18.038 21.5204 15.8086 21.5204 11.3499 21.5204C6.89123 21.5204 4.66188 21.5204 3.27675 20.1353C1.8916 18.7502 1.8916 16.5208 1.8916 12.0621Z" stroke="#002F0F" stroke-opacity="0.2" stroke-width="1.3125"/>
<path d="M1.8916 12.0621C1.8916 7.60339 1.8916 5.37404 3.27675 3.9889C4.66188 2.60376 6.89123 2.60376 11.3499 2.60376C15.8086 2.60376 18.038 2.60376 19.4231 3.9889C20.8083 5.37404 20.8083 7.60339 20.8083 12.0621C20.8083 16.5208 20.8083 18.7502 19.4231 20.1353C18.038 21.5204 15.8086 21.5204 11.3499 21.5204C6.89123 21.5204 4.66188 21.5204 3.27675 20.1353C1.8916 18.7502 1.8916 16.5208 1.8916 12.0621Z" stroke="#002F0F" stroke-opacity="0.2" stroke-width="1.3125"/>
<path d="M1.8916 12.0621C1.8916 7.60339 1.8916 5.37404 3.27675 3.9889C4.66188 2.60376 6.89123 2.60376 11.3499 2.60376C15.8086 2.60376 18.038 2.60376 19.4231 3.9889C20.8083 5.37404 20.8083 7.60339 20.8083 12.0621C20.8083 16.5208 20.8083 18.7502 19.4231 20.1353C18.038 21.5204 15.8086 21.5204 11.3499 21.5204C6.89123 21.5204 4.66188 21.5204 3.27675 20.1353C1.8916 18.7502 1.8916 16.5208 1.8916 12.0621Z" stroke="#002F0F" stroke-opacity="0.2" stroke-width="1.3125"/>
<path d="M1.8916 12.0621C1.8916 7.60339 1.8916 5.37404 3.27675 3.9889C4.66188 2.60376 6.89123 2.60376 11.3499 2.60376C15.8086 2.60376 18.038 2.60376 19.4231 3.9889C20.8083 5.37404 20.8083 7.60339 20.8083 12.0621C20.8083 16.5208 20.8083 18.7502 19.4231 20.1353C18.038 21.5204 15.8086 21.5204 11.3499 21.5204C6.89123 21.5204 4.66188 21.5204 3.27675 20.1353C1.8916 18.7502 1.8916 16.5208 1.8916 12.0621Z" stroke="#002F0F" stroke-opacity="0.2" stroke-width="1.3125"/>
<path d="M1.8916 12.0621C1.8916 7.60339 1.8916 5.37404 3.27675 3.9889C4.66188 2.60376 6.89123 2.60376 11.3499 2.60376C15.8086 2.60376 18.038 2.60376 19.4231 3.9889C20.8083 5.37404 20.8083 7.60339 20.8083 12.0621C20.8083 16.5208 20.8083 18.7502 19.4231 20.1353C18.038 21.5204 15.8086 21.5204 11.3499 21.5204C6.89123 21.5204 4.66188 21.5204 3.27675 20.1353C1.8916 18.7502 1.8916 16.5208 1.8916 12.0621Z" stroke="#002F0F" stroke-opacity="0.2" stroke-width="1.3125"/>
<path d="M14.1875 12.0621H11.35M11.35 12.0621H8.51245M11.35 12.0621V9.22461M11.35 12.0621V14.8996" stroke="#002F0F" stroke-width="1.3125" stroke-linecap="round"/>
<path d="M14.1875 12.0621H11.35M11.35 12.0621H8.51245M11.35 12.0621V9.22461M11.35 12.0621V14.8996" stroke="#002F0F" stroke-opacity="0.2" stroke-width="1.3125" stroke-linecap="round"/>
<path d="M14.1875 12.0621H11.35M11.35 12.0621H8.51245M11.35 12.0621V9.22461M11.35 12.0621V14.8996" stroke="#002F0F" stroke-opacity="0.2" stroke-width="1.3125" stroke-linecap="round"/>
<path d="M14.1875 12.0621H11.35M11.35 12.0621H8.51245M11.35 12.0621V9.22461M11.35 12.0621V14.8996" stroke="#002F0F" stroke-opacity="0.2" stroke-width="1.3125" stroke-linecap="round"/>
<path d="M14.1875 12.0621H11.35M11.35 12.0621H8.51245M11.35 12.0621V9.22461M11.35 12.0621V14.8996" stroke="#002F0F" stroke-opacity="0.2" stroke-width="1.3125" stroke-linecap="round"/>
<path d="M14.1875 12.0621H11.35M11.35 12.0621H8.51245M11.35 12.0621V9.22461M11.35 12.0621V14.8996" stroke="#002F0F" stroke-opacity="0.2" stroke-width="1.3125" stroke-linecap="round"/>
<path d="M14.1875 12.0621H11.35M11.35 12.0621H8.51245M11.35 12.0621V9.22461M11.35 12.0621V14.8996" stroke="#002F0F" stroke-opacity="0.2" stroke-width="1.3125" stroke-linecap="round"/>
<path d="M14.1875 12.0621H11.35M11.35 12.0621H8.51245M11.35 12.0621V9.22461M11.35 12.0621V14.8996" stroke="#002F0F" stroke-opacity="0.2" stroke-width="1.3125" stroke-linecap="round"/>
</svg>
