<svg width="23" height="24" viewBox="0 0 23 24" fill="none" xmlns="http://www.w3.org/2000/svg">
<path d="M9.45824 15.8454V13.954M9.45824 13.954V12.0621M9.45824 13.954L11.3499 13.9542M9.45824 13.954L7.56657 13.9538M19.8624 12.0621V11.3054C19.8624 10.246 19.8624 9.71627 19.6562 9.31162C19.4749 8.95568 19.1855 8.66629 18.8296 8.48494C18.4249 8.27876 17.8952 8.27876 16.8357 8.27876H2.8374M19.8624 12.0621V15.8454M19.8624 12.0621H17.9707C16.926 12.0621 16.0791 12.909 16.0791 13.9538C16.0791 14.9985 16.926 15.8454 17.9707 15.8454H19.8624M2.8374 8.27876V16.6021C2.8374 17.6615 2.8374 18.1913 3.04358 18.5959C3.22494 18.9518 3.51433 19.2412 3.87027 19.4226C4.27492 19.6288 4.80464 19.6288 5.86407 19.6288H16.8357C17.8952 19.6288 18.4249 19.6288 18.8296 19.4226C19.1855 19.2412 19.4749 18.9518 19.6562 18.5959C19.8624 18.1913 19.8624 17.6615 19.8624 16.6021V15.8454M2.8374 8.27876V7.52209C2.8374 6.46266 2.8374 5.93294 3.04358 5.52829C3.22494 5.17235 3.51433 4.88296 3.87027 4.7016C4.27492 4.49542 4.80463 4.49542 5.86407 4.49542H13.9982C15.0577 4.49542 15.5874 4.49542 15.9921 4.7016C16.348 4.88296 16.6374 5.17235 16.8187 5.52829C17.0249 5.93294 17.0249 6.46266 17.0249 7.52209V8.27876" stroke="#002F0F" stroke-width="1.25" stroke-linecap="round" stroke-linejoin="round"/>
<path d="M9.45824 15.8454V13.954M9.45824 13.954V12.0621M9.45824 13.954L11.3499 13.9542M9.45824 13.954L7.56657 13.9538M19.8624 12.0621V11.3054C19.8624 10.246 19.8624 9.71627 19.6562 9.31162C19.4749 8.95568 19.1855 8.66629 18.8296 8.48494C18.4249 8.27876 17.8952 8.27876 16.8357 8.27876H2.8374M19.8624 12.0621V15.8454M19.8624 12.0621H17.9707C16.926 12.0621 16.0791 12.909 16.0791 13.9538C16.0791 14.9985 16.926 15.8454 17.9707 15.8454H19.8624M2.8374 8.27876V16.6021C2.8374 17.6615 2.8374 18.1913 3.04358 18.5959C3.22494 18.9518 3.51433 19.2412 3.87027 19.4226C4.27492 19.6288 4.80464 19.6288 5.86407 19.6288H16.8357C17.8952 19.6288 18.4249 19.6288 18.8296 19.4226C19.1855 19.2412 19.4749 18.9518 19.6562 18.5959C19.8624 18.1913 19.8624 17.6615 19.8624 16.6021V15.8454M2.8374 8.27876V7.52209C2.8374 6.46266 2.8374 5.93294 3.04358 5.52829C3.22494 5.17235 3.51433 4.88296 3.87027 4.7016C4.27492 4.49542 4.80463 4.49542 5.86407 4.49542H13.9982C15.0577 4.49542 15.5874 4.49542 15.9921 4.7016C16.348 4.88296 16.6374 5.17235 16.8187 5.52829C17.0249 5.93294 17.0249 6.46266 17.0249 7.52209V8.27876" stroke="#002F0F" stroke-opacity="0.2" stroke-width="1.25" stroke-linecap="round" stroke-linejoin="round"/>
<path d="M9.45824 15.8454V13.954M9.45824 13.954V12.0621M9.45824 13.954L11.3499 13.9542M9.45824 13.954L7.56657 13.9538M19.8624 12.0621V11.3054C19.8624 10.246 19.8624 9.71627 19.6562 9.31162C19.4749 8.95568 19.1855 8.66629 18.8296 8.48494C18.4249 8.27876 17.8952 8.27876 16.8357 8.27876H2.8374M19.8624 12.0621V15.8454M19.8624 12.0621H17.9707C16.926 12.0621 16.0791 12.909 16.0791 13.9538C16.0791 14.9985 16.926 15.8454 17.9707 15.8454H19.8624M2.8374 8.27876V16.6021C2.8374 17.6615 2.8374 18.1913 3.04358 18.5959C3.22494 18.9518 3.51433 19.2412 3.87027 19.4226C4.27492 19.6288 4.80464 19.6288 5.86407 19.6288H16.8357C17.8952 19.6288 18.4249 19.6288 18.8296 19.4226C19.1855 19.2412 19.4749 18.9518 19.6562 18.5959C19.8624 18.1913 19.8624 17.6615 19.8624 16.6021V15.8454M2.8374 8.27876V7.52209C2.8374 6.46266 2.8374 5.93294 3.04358 5.52829C3.22494 5.17235 3.51433 4.88296 3.87027 4.7016C4.27492 4.49542 4.80463 4.49542 5.86407 4.49542H13.9982C15.0577 4.49542 15.5874 4.49542 15.9921 4.7016C16.348 4.88296 16.6374 5.17235 16.8187 5.52829C17.0249 5.93294 17.0249 6.46266 17.0249 7.52209V8.27876" stroke="#002F0F" stroke-opacity="0.2" stroke-width="1.25" stroke-linecap="round" stroke-linejoin="round"/>
<path d="M9.45824 15.8454V13.954M9.45824 13.954V12.0621M9.45824 13.954L11.3499 13.9542M9.45824 13.954L7.56657 13.9538M19.8624 12.0621V11.3054C19.8624 10.246 19.8624 9.71627 19.6562 9.31162C19.4749 8.95568 19.1855 8.66629 18.8296 8.48494C18.4249 8.27876 17.8952 8.27876 16.8357 8.27876H2.8374M19.8624 12.0621V15.8454M19.8624 12.0621H17.9707C16.926 12.0621 16.0791 12.909 16.0791 13.9538C16.0791 14.9985 16.926 15.8454 17.9707 15.8454H19.8624M2.8374 8.27876V16.6021C2.8374 17.6615 2.8374 18.1913 3.04358 18.5959C3.22494 18.9518 3.51433 19.2412 3.87027 19.4226C4.27492 19.6288 4.80464 19.6288 5.86407 19.6288H16.8357C17.8952 19.6288 18.4249 19.6288 18.8296 19.4226C19.1855 19.2412 19.4749 18.9518 19.6562 18.5959C19.8624 18.1913 19.8624 17.6615 19.8624 16.6021V15.8454M2.8374 8.27876V7.52209C2.8374 6.46266 2.8374 5.93294 3.04358 5.52829C3.22494 5.17235 3.51433 4.88296 3.87027 4.7016C4.27492 4.49542 4.80463 4.49542 5.86407 4.49542H13.9982C15.0577 4.49542 15.5874 4.49542 15.9921 4.7016C16.348 4.88296 16.6374 5.17235 16.8187 5.52829C17.0249 5.93294 17.0249 6.46266 17.0249 7.52209V8.27876" stroke="#002F0F" stroke-opacity="0.2" stroke-width="1.25" stroke-linecap="round" stroke-linejoin="round"/>
<path d="M9.45824 15.8454V13.954M9.45824 13.954V12.0621M9.45824 13.954L11.3499 13.9542M9.45824 13.954L7.56657 13.9538M19.8624 12.0621V11.3054C19.8624 10.246 19.8624 9.71627 19.6562 9.31162C19.4749 8.95568 19.1855 8.66629 18.8296 8.48494C18.4249 8.27876 17.8952 8.27876 16.8357 8.27876H2.8374M19.8624 12.0621V15.8454M19.8624 12.0621H17.9707C16.926 12.0621 16.0791 12.909 16.0791 13.9538C16.0791 14.9985 16.926 15.8454 17.9707 15.8454H19.8624M2.8374 8.27876V16.6021C2.8374 17.6615 2.8374 18.1913 3.04358 18.5959C3.22494 18.9518 3.51433 19.2412 3.87027 19.4226C4.27492 19.6288 4.80464 19.6288 5.86407 19.6288H16.8357C17.8952 19.6288 18.4249 19.6288 18.8296 19.4226C19.1855 19.2412 19.4749 18.9518 19.6562 18.5959C19.8624 18.1913 19.8624 17.6615 19.8624 16.6021V15.8454M2.8374 8.27876V7.52209C2.8374 6.46266 2.8374 5.93294 3.04358 5.52829C3.22494 5.17235 3.51433 4.88296 3.87027 4.7016C4.27492 4.49542 4.80463 4.49542 5.86407 4.49542H13.9982C15.0577 4.49542 15.5874 4.49542 15.9921 4.7016C16.348 4.88296 16.6374 5.17235 16.8187 5.52829C17.0249 5.93294 17.0249 6.46266 17.0249 7.52209V8.27876" stroke="#002F0F" stroke-opacity="0.2" stroke-width="1.25" stroke-linecap="round" stroke-linejoin="round"/>
<path d="M9.45824 15.8454V13.954M9.45824 13.954V12.0621M9.45824 13.954L11.3499 13.9542M9.45824 13.954L7.56657 13.9538M19.8624 12.0621V11.3054C19.8624 10.246 19.8624 9.71627 19.6562 9.31162C19.4749 8.95568 19.1855 8.66629 18.8296 8.48494C18.4249 8.27876 17.8952 8.27876 16.8357 8.27876H2.8374M19.8624 12.0621V15.8454M19.8624 12.0621H17.9707C16.926 12.0621 16.0791 12.909 16.0791 13.9538C16.0791 14.9985 16.926 15.8454 17.9707 15.8454H19.8624M2.8374 8.27876V16.6021C2.8374 17.6615 2.8374 18.1913 3.04358 18.5959C3.22494 18.9518 3.51433 19.2412 3.87027 19.4226C4.27492 19.6288 4.80464 19.6288 5.86407 19.6288H16.8357C17.8952 19.6288 18.4249 19.6288 18.8296 19.4226C19.1855 19.2412 19.4749 18.9518 19.6562 18.5959C19.8624 18.1913 19.8624 17.6615 19.8624 16.6021V15.8454M2.8374 8.27876V7.52209C2.8374 6.46266 2.8374 5.93294 3.04358 5.52829C3.22494 5.17235 3.51433 4.88296 3.87027 4.7016C4.27492 4.49542 4.80463 4.49542 5.86407 4.49542H13.9982C15.0577 4.49542 15.5874 4.49542 15.9921 4.7016C16.348 4.88296 16.6374 5.17235 16.8187 5.52829C17.0249 5.93294 17.0249 6.46266 17.0249 7.52209V8.27876" stroke="#002F0F" stroke-opacity="0.2" stroke-width="1.25" stroke-linecap="round" stroke-linejoin="round"/>
<path d="M9.45824 15.8454V13.954M9.45824 13.954V12.0621M9.45824 13.954L11.3499 13.9542M9.45824 13.954L7.56657 13.9538M19.8624 12.0621V11.3054C19.8624 10.246 19.8624 9.71627 19.6562 9.31162C19.4749 8.95568 19.1855 8.66629 18.8296 8.48494C18.4249 8.27876 17.8952 8.27876 16.8357 8.27876H2.8374M19.8624 12.0621V15.8454M19.8624 12.0621H17.9707C16.926 12.0621 16.0791 12.909 16.0791 13.9538C16.0791 14.9985 16.926 15.8454 17.9707 15.8454H19.8624M2.8374 8.27876V16.6021C2.8374 17.6615 2.8374 18.1913 3.04358 18.5959C3.22494 18.9518 3.51433 19.2412 3.87027 19.4226C4.27492 19.6288 4.80464 19.6288 5.86407 19.6288H16.8357C17.8952 19.6288 18.4249 19.6288 18.8296 19.4226C19.1855 19.2412 19.4749 18.9518 19.6562 18.5959C19.8624 18.1913 19.8624 17.6615 19.8624 16.6021V15.8454M2.8374 8.27876V7.52209C2.8374 6.46266 2.8374 5.93294 3.04358 5.52829C3.22494 5.17235 3.51433 4.88296 3.87027 4.7016C4.27492 4.49542 4.80463 4.49542 5.86407 4.49542H13.9982C15.0577 4.49542 15.5874 4.49542 15.9921 4.7016C16.348 4.88296 16.6374 5.17235 16.8187 5.52829C17.0249 5.93294 17.0249 6.46266 17.0249 7.52209V8.27876" stroke="#002F0F" stroke-opacity="0.2" stroke-width="1.25" stroke-linecap="round" stroke-linejoin="round"/>
<path d="M9.45824 15.8454V13.954M9.45824 13.954V12.0621M9.45824 13.954L11.3499 13.9542M9.45824 13.954L7.56657 13.9538M19.8624 12.0621V11.3054C19.8624 10.246 19.8624 9.71627 19.6562 9.31162C19.4749 8.95568 19.1855 8.66629 18.8296 8.48494C18.4249 8.27876 17.8952 8.27876 16.8357 8.27876H2.8374M19.8624 12.0621V15.8454M19.8624 12.0621H17.9707C16.926 12.0621 16.0791 12.909 16.0791 13.9538C16.0791 14.9985 16.926 15.8454 17.9707 15.8454H19.8624M2.8374 8.27876V16.6021C2.8374 17.6615 2.8374 18.1913 3.04358 18.5959C3.22494 18.9518 3.51433 19.2412 3.87027 19.4226C4.27492 19.6288 4.80464 19.6288 5.86407 19.6288H16.8357C17.8952 19.6288 18.4249 19.6288 18.8296 19.4226C19.1855 19.2412 19.4749 18.9518 19.6562 18.5959C19.8624 18.1913 19.8624 17.6615 19.8624 16.6021V15.8454M2.8374 8.27876V7.52209C2.8374 6.46266 2.8374 5.93294 3.04358 5.52829C3.22494 5.17235 3.51433 4.88296 3.87027 4.7016C4.27492 4.49542 4.80463 4.49542 5.86407 4.49542H13.9982C15.0577 4.49542 15.5874 4.49542 15.9921 4.7016C16.348 4.88296 16.6374 5.17235 16.8187 5.52829C17.0249 5.93294 17.0249 6.46266 17.0249 7.52209V8.27876" stroke="#002F0F" stroke-opacity="0.2" stroke-width="1.25" stroke-linecap="round" stroke-linejoin="round"/>
</svg>
