<svg width="21" height="20" viewBox="0 0 21 20" fill="none" xmlns="http://www.w3.org/2000/svg">
<path fill-rule="evenodd" clip-rule="evenodd" d="M1.96484 5.78131V3.64752C1.96484 2.48117 2.91375 1.53229 4.08008 1.53229H6.21387C6.48029 1.53229 6.69629 1.31629 6.69629 1.04987C6.69629 0.783439 6.48029 0.567444 6.21387 0.567444H4.08008C2.38173 0.567444 1 1.94916 1 3.64752V5.78131C1 6.04774 1.216 6.26373 1.48242 6.26373C1.74885 6.26373 1.96484 6.04774 1.96484 5.78131ZM6.21387 18.6026C6.48029 18.6026 6.69629 18.8186 6.69629 19.085C6.69629 19.3515 6.48029 19.5675 6.21387 19.5675H4.08008C2.38173 19.5675 1 18.1857 1 16.4874V14.3536C1 14.0872 1.216 13.8712 1.48242 13.8712C1.74885 13.8712 1.96484 14.0872 1.96484 14.3536V16.4874C1.96484 17.6537 2.91375 18.6026 4.08008 18.6026H6.21387ZM20 14.3536V16.4874C20 18.1857 18.6183 19.5675 16.9199 19.5675H14.7861C14.5197 19.5675 14.3037 19.3515 14.3037 19.085C14.3037 18.8186 14.5197 18.6026 14.7861 18.6026H16.9199C18.0863 18.6026 19.0352 17.6537 19.0352 16.4874V14.3536C19.0352 14.0872 19.2512 13.8712 19.5176 13.8712C19.784 13.8712 20 14.0872 20 14.3536ZM20 3.64752V5.78131C20 6.04774 19.784 6.26373 19.5176 6.26373C19.2512 6.26373 19.0352 6.04774 19.0352 5.78131V3.64752C19.0352 2.48117 18.0863 1.53229 16.9199 1.53229H14.7861C14.5197 1.53229 14.3037 1.31629 14.3037 1.04987C14.3037 0.783439 14.5197 0.567444 14.7861 0.567444H16.9199C18.6183 0.567444 20 1.94916 20 3.64752ZM13.8292 14.6103C14.0325 14.4225 14.045 14.1056 13.8573 13.9023C13.6695 13.6991 13.3526 13.6865 13.1493 13.8742C12.4261 14.5423 11.4852 14.9102 10.5 14.9102C9.51469 14.9102 8.57378 14.5423 7.85057 13.8742C7.64729 13.6865 7.33039 13.6991 7.14264 13.9023C6.9549 14.1056 6.96746 14.4225 7.17071 14.6103C8.07961 15.4498 9.26194 15.9121 10.5 15.9121C11.738 15.9121 12.9203 15.4498 13.8292 14.6103ZM11.5019 7.72957V11.2921C11.5019 11.998 10.9276 12.5723 10.2217 12.5723H9.81347C9.53679 12.5723 9.3125 12.3481 9.3125 12.0714C9.3125 11.7947 9.53679 11.5704 9.81347 11.5704H10.2217C10.3751 11.5704 10.5 11.4455 10.5 11.2921V7.72957C10.5 7.45288 10.7243 7.22859 11.001 7.22859C11.2777 7.22859 11.5019 7.45288 11.5019 7.72957ZM14.9531 9.13045V7.70174C14.9531 7.44043 14.7413 7.22859 14.48 7.22859C14.2187 7.22859 14.0069 7.44043 14.0069 7.70174V9.13045C14.0069 9.39175 14.2187 9.60359 14.48 9.60359C14.7413 9.60359 14.9531 9.39175 14.9531 9.13045ZM6.15822 9.13045C6.15822 9.39175 6.37006 9.60359 6.63136 9.60359C6.89267 9.60359 7.10451 9.39175 7.10451 9.13045V7.70174C7.10451 7.44043 6.89267 7.22859 6.63136 7.22859C6.37006 7.22859 6.15822 7.44043 6.15822 7.70174V9.13045Z" fill="#002F0F"/>
<path fill-rule="evenodd" clip-rule="evenodd" d="M1.96484 5.78131V3.64752C1.96484 2.48117 2.91375 1.53229 4.08008 1.53229H6.21387C6.48029 1.53229 6.69629 1.31629 6.69629 1.04987C6.69629 0.783439 6.48029 0.567444 6.21387 0.567444H4.08008C2.38173 0.567444 1 1.94916 1 3.64752V5.78131C1 6.04774 1.216 6.26373 1.48242 6.26373C1.74885 6.26373 1.96484 6.04774 1.96484 5.78131ZM6.21387 18.6026C6.48029 18.6026 6.69629 18.8186 6.69629 19.085C6.69629 19.3515 6.48029 19.5675 6.21387 19.5675H4.08008C2.38173 19.5675 1 18.1857 1 16.4874V14.3536C1 14.0872 1.216 13.8712 1.48242 13.8712C1.74885 13.8712 1.96484 14.0872 1.96484 14.3536V16.4874C1.96484 17.6537 2.91375 18.6026 4.08008 18.6026H6.21387ZM20 14.3536V16.4874C20 18.1857 18.6183 19.5675 16.9199 19.5675H14.7861C14.5197 19.5675 14.3037 19.3515 14.3037 19.085C14.3037 18.8186 14.5197 18.6026 14.7861 18.6026H16.9199C18.0863 18.6026 19.0352 17.6537 19.0352 16.4874V14.3536C19.0352 14.0872 19.2512 13.8712 19.5176 13.8712C19.784 13.8712 20 14.0872 20 14.3536ZM20 3.64752V5.78131C20 6.04774 19.784 6.26373 19.5176 6.26373C19.2512 6.26373 19.0352 6.04774 19.0352 5.78131V3.64752C19.0352 2.48117 18.0863 1.53229 16.9199 1.53229H14.7861C14.5197 1.53229 14.3037 1.31629 14.3037 1.04987C14.3037 0.783439 14.5197 0.567444 14.7861 0.567444H16.9199C18.6183 0.567444 20 1.94916 20 3.64752ZM13.8292 14.6103C14.0325 14.4225 14.045 14.1056 13.8573 13.9023C13.6695 13.6991 13.3526 13.6865 13.1493 13.8742C12.4261 14.5423 11.4852 14.9102 10.5 14.9102C9.51469 14.9102 8.57378 14.5423 7.85057 13.8742C7.64729 13.6865 7.33039 13.6991 7.14264 13.9023C6.9549 14.1056 6.96746 14.4225 7.17071 14.6103C8.07961 15.4498 9.26194 15.9121 10.5 15.9121C11.738 15.9121 12.9203 15.4498 13.8292 14.6103ZM11.5019 7.72957V11.2921C11.5019 11.998 10.9276 12.5723 10.2217 12.5723H9.81347C9.53679 12.5723 9.3125 12.3481 9.3125 12.0714C9.3125 11.7947 9.53679 11.5704 9.81347 11.5704H10.2217C10.3751 11.5704 10.5 11.4455 10.5 11.2921V7.72957C10.5 7.45288 10.7243 7.22859 11.001 7.22859C11.2777 7.22859 11.5019 7.45288 11.5019 7.72957ZM14.9531 9.13045V7.70174C14.9531 7.44043 14.7413 7.22859 14.48 7.22859C14.2187 7.22859 14.0069 7.44043 14.0069 7.70174V9.13045C14.0069 9.39175 14.2187 9.60359 14.48 9.60359C14.7413 9.60359 14.9531 9.39175 14.9531 9.13045ZM6.15822 9.13045C6.15822 9.39175 6.37006 9.60359 6.63136 9.60359C6.89267 9.60359 7.10451 9.39175 7.10451 9.13045V7.70174C7.10451 7.44043 6.89267 7.22859 6.63136 7.22859C6.37006 7.22859 6.15822 7.44043 6.15822 7.70174V9.13045Z" fill="#002F0F" fill-opacity="0.2"/>
<path fill-rule="evenodd" clip-rule="evenodd" d="M1.96484 5.78131V3.64752C1.96484 2.48117 2.91375 1.53229 4.08008 1.53229H6.21387C6.48029 1.53229 6.69629 1.31629 6.69629 1.04987C6.69629 0.783439 6.48029 0.567444 6.21387 0.567444H4.08008C2.38173 0.567444 1 1.94916 1 3.64752V5.78131C1 6.04774 1.216 6.26373 1.48242 6.26373C1.74885 6.26373 1.96484 6.04774 1.96484 5.78131ZM6.21387 18.6026C6.48029 18.6026 6.69629 18.8186 6.69629 19.085C6.69629 19.3515 6.48029 19.5675 6.21387 19.5675H4.08008C2.38173 19.5675 1 18.1857 1 16.4874V14.3536C1 14.0872 1.216 13.8712 1.48242 13.8712C1.74885 13.8712 1.96484 14.0872 1.96484 14.3536V16.4874C1.96484 17.6537 2.91375 18.6026 4.08008 18.6026H6.21387ZM20 14.3536V16.4874C20 18.1857 18.6183 19.5675 16.9199 19.5675H14.7861C14.5197 19.5675 14.3037 19.3515 14.3037 19.085C14.3037 18.8186 14.5197 18.6026 14.7861 18.6026H16.9199C18.0863 18.6026 19.0352 17.6537 19.0352 16.4874V14.3536C19.0352 14.0872 19.2512 13.8712 19.5176 13.8712C19.784 13.8712 20 14.0872 20 14.3536ZM20 3.64752V5.78131C20 6.04774 19.784 6.26373 19.5176 6.26373C19.2512 6.26373 19.0352 6.04774 19.0352 5.78131V3.64752C19.0352 2.48117 18.0863 1.53229 16.9199 1.53229H14.7861C14.5197 1.53229 14.3037 1.31629 14.3037 1.04987C14.3037 0.783439 14.5197 0.567444 14.7861 0.567444H16.9199C18.6183 0.567444 20 1.94916 20 3.64752ZM13.8292 14.6103C14.0325 14.4225 14.045 14.1056 13.8573 13.9023C13.6695 13.6991 13.3526 13.6865 13.1493 13.8742C12.4261 14.5423 11.4852 14.9102 10.5 14.9102C9.51469 14.9102 8.57378 14.5423 7.85057 13.8742C7.64729 13.6865 7.33039 13.6991 7.14264 13.9023C6.9549 14.1056 6.96746 14.4225 7.17071 14.6103C8.07961 15.4498 9.26194 15.9121 10.5 15.9121C11.738 15.9121 12.9203 15.4498 13.8292 14.6103ZM11.5019 7.72957V11.2921C11.5019 11.998 10.9276 12.5723 10.2217 12.5723H9.81347C9.53679 12.5723 9.3125 12.3481 9.3125 12.0714C9.3125 11.7947 9.53679 11.5704 9.81347 11.5704H10.2217C10.3751 11.5704 10.5 11.4455 10.5 11.2921V7.72957C10.5 7.45288 10.7243 7.22859 11.001 7.22859C11.2777 7.22859 11.5019 7.45288 11.5019 7.72957ZM14.9531 9.13045V7.70174C14.9531 7.44043 14.7413 7.22859 14.48 7.22859C14.2187 7.22859 14.0069 7.44043 14.0069 7.70174V9.13045C14.0069 9.39175 14.2187 9.60359 14.48 9.60359C14.7413 9.60359 14.9531 9.39175 14.9531 9.13045ZM6.15822 9.13045C6.15822 9.39175 6.37006 9.60359 6.63136 9.60359C6.89267 9.60359 7.10451 9.39175 7.10451 9.13045V7.70174C7.10451 7.44043 6.89267 7.22859 6.63136 7.22859C6.37006 7.22859 6.15822 7.44043 6.15822 7.70174V9.13045Z" fill="#002F0F" fill-opacity="0.2"/>
<path fill-rule="evenodd" clip-rule="evenodd" d="M1.96484 5.78131V3.64752C1.96484 2.48117 2.91375 1.53229 4.08008 1.53229H6.21387C6.48029 1.53229 6.69629 1.31629 6.69629 1.04987C6.69629 0.783439 6.48029 0.567444 6.21387 0.567444H4.08008C2.38173 0.567444 1 1.94916 1 3.64752V5.78131C1 6.04774 1.216 6.26373 1.48242 6.26373C1.74885 6.26373 1.96484 6.04774 1.96484 5.78131ZM6.21387 18.6026C6.48029 18.6026 6.69629 18.8186 6.69629 19.085C6.69629 19.3515 6.48029 19.5675 6.21387 19.5675H4.08008C2.38173 19.5675 1 18.1857 1 16.4874V14.3536C1 14.0872 1.216 13.8712 1.48242 13.8712C1.74885 13.8712 1.96484 14.0872 1.96484 14.3536V16.4874C1.96484 17.6537 2.91375 18.6026 4.08008 18.6026H6.21387ZM20 14.3536V16.4874C20 18.1857 18.6183 19.5675 16.9199 19.5675H14.7861C14.5197 19.5675 14.3037 19.3515 14.3037 19.085C14.3037 18.8186 14.5197 18.6026 14.7861 18.6026H16.9199C18.0863 18.6026 19.0352 17.6537 19.0352 16.4874V14.3536C19.0352 14.0872 19.2512 13.8712 19.5176 13.8712C19.784 13.8712 20 14.0872 20 14.3536ZM20 3.64752V5.78131C20 6.04774 19.784 6.26373 19.5176 6.26373C19.2512 6.26373 19.0352 6.04774 19.0352 5.78131V3.64752C19.0352 2.48117 18.0863 1.53229 16.9199 1.53229H14.7861C14.5197 1.53229 14.3037 1.31629 14.3037 1.04987C14.3037 0.783439 14.5197 0.567444 14.7861 0.567444H16.9199C18.6183 0.567444 20 1.94916 20 3.64752ZM13.8292 14.6103C14.0325 14.4225 14.045 14.1056 13.8573 13.9023C13.6695 13.6991 13.3526 13.6865 13.1493 13.8742C12.4261 14.5423 11.4852 14.9102 10.5 14.9102C9.51469 14.9102 8.57378 14.5423 7.85057 13.8742C7.64729 13.6865 7.33039 13.6991 7.14264 13.9023C6.9549 14.1056 6.96746 14.4225 7.17071 14.6103C8.07961 15.4498 9.26194 15.9121 10.5 15.9121C11.738 15.9121 12.9203 15.4498 13.8292 14.6103ZM11.5019 7.72957V11.2921C11.5019 11.998 10.9276 12.5723 10.2217 12.5723H9.81347C9.53679 12.5723 9.3125 12.3481 9.3125 12.0714C9.3125 11.7947 9.53679 11.5704 9.81347 11.5704H10.2217C10.3751 11.5704 10.5 11.4455 10.5 11.2921V7.72957C10.5 7.45288 10.7243 7.22859 11.001 7.22859C11.2777 7.22859 11.5019 7.45288 11.5019 7.72957ZM14.9531 9.13045V7.70174C14.9531 7.44043 14.7413 7.22859 14.48 7.22859C14.2187 7.22859 14.0069 7.44043 14.0069 7.70174V9.13045C14.0069 9.39175 14.2187 9.60359 14.48 9.60359C14.7413 9.60359 14.9531 9.39175 14.9531 9.13045ZM6.15822 9.13045C6.15822 9.39175 6.37006 9.60359 6.63136 9.60359C6.89267 9.60359 7.10451 9.39175 7.10451 9.13045V7.70174C7.10451 7.44043 6.89267 7.22859 6.63136 7.22859C6.37006 7.22859 6.15822 7.44043 6.15822 7.70174V9.13045Z" fill="#002F0F" fill-opacity="0.2"/>
<path fill-rule="evenodd" clip-rule="evenodd" d="M1.96484 5.78131V3.64752C1.96484 2.48117 2.91375 1.53229 4.08008 1.53229H6.21387C6.48029 1.53229 6.69629 1.31629 6.69629 1.04987C6.69629 0.783439 6.48029 0.567444 6.21387 0.567444H4.08008C2.38173 0.567444 1 1.94916 1 3.64752V5.78131C1 6.04774 1.216 6.26373 1.48242 6.26373C1.74885 6.26373 1.96484 6.04774 1.96484 5.78131ZM6.21387 18.6026C6.48029 18.6026 6.69629 18.8186 6.69629 19.085C6.69629 19.3515 6.48029 19.5675 6.21387 19.5675H4.08008C2.38173 19.5675 1 18.1857 1 16.4874V14.3536C1 14.0872 1.216 13.8712 1.48242 13.8712C1.74885 13.8712 1.96484 14.0872 1.96484 14.3536V16.4874C1.96484 17.6537 2.91375 18.6026 4.08008 18.6026H6.21387ZM20 14.3536V16.4874C20 18.1857 18.6183 19.5675 16.9199 19.5675H14.7861C14.5197 19.5675 14.3037 19.3515 14.3037 19.085C14.3037 18.8186 14.5197 18.6026 14.7861 18.6026H16.9199C18.0863 18.6026 19.0352 17.6537 19.0352 16.4874V14.3536C19.0352 14.0872 19.2512 13.8712 19.5176 13.8712C19.784 13.8712 20 14.0872 20 14.3536ZM20 3.64752V5.78131C20 6.04774 19.784 6.26373 19.5176 6.26373C19.2512 6.26373 19.0352 6.04774 19.0352 5.78131V3.64752C19.0352 2.48117 18.0863 1.53229 16.9199 1.53229H14.7861C14.5197 1.53229 14.3037 1.31629 14.3037 1.04987C14.3037 0.783439 14.5197 0.567444 14.7861 0.567444H16.9199C18.6183 0.567444 20 1.94916 20 3.64752ZM13.8292 14.6103C14.0325 14.4225 14.045 14.1056 13.8573 13.9023C13.6695 13.6991 13.3526 13.6865 13.1493 13.8742C12.4261 14.5423 11.4852 14.9102 10.5 14.9102C9.51469 14.9102 8.57378 14.5423 7.85057 13.8742C7.64729 13.6865 7.33039 13.6991 7.14264 13.9023C6.9549 14.1056 6.96746 14.4225 7.17071 14.6103C8.07961 15.4498 9.26194 15.9121 10.5 15.9121C11.738 15.9121 12.9203 15.4498 13.8292 14.6103ZM11.5019 7.72957V11.2921C11.5019 11.998 10.9276 12.5723 10.2217 12.5723H9.81347C9.53679 12.5723 9.3125 12.3481 9.3125 12.0714C9.3125 11.7947 9.53679 11.5704 9.81347 11.5704H10.2217C10.3751 11.5704 10.5 11.4455 10.5 11.2921V7.72957C10.5 7.45288 10.7243 7.22859 11.001 7.22859C11.2777 7.22859 11.5019 7.45288 11.5019 7.72957ZM14.9531 9.13045V7.70174C14.9531 7.44043 14.7413 7.22859 14.48 7.22859C14.2187 7.22859 14.0069 7.44043 14.0069 7.70174V9.13045C14.0069 9.39175 14.2187 9.60359 14.48 9.60359C14.7413 9.60359 14.9531 9.39175 14.9531 9.13045ZM6.15822 9.13045C6.15822 9.39175 6.37006 9.60359 6.63136 9.60359C6.89267 9.60359 7.10451 9.39175 7.10451 9.13045V7.70174C7.10451 7.44043 6.89267 7.22859 6.63136 7.22859C6.37006 7.22859 6.15822 7.44043 6.15822 7.70174V9.13045Z" fill="#002F0F" fill-opacity="0.2"/>
<path fill-rule="evenodd" clip-rule="evenodd" d="M1.96484 5.78131V3.64752C1.96484 2.48117 2.91375 1.53229 4.08008 1.53229H6.21387C6.48029 1.53229 6.69629 1.31629 6.69629 1.04987C6.69629 0.783439 6.48029 0.567444 6.21387 0.567444H4.08008C2.38173 0.567444 1 1.94916 1 3.64752V5.78131C1 6.04774 1.216 6.26373 1.48242 6.26373C1.74885 6.26373 1.96484 6.04774 1.96484 5.78131ZM6.21387 18.6026C6.48029 18.6026 6.69629 18.8186 6.69629 19.085C6.69629 19.3515 6.48029 19.5675 6.21387 19.5675H4.08008C2.38173 19.5675 1 18.1857 1 16.4874V14.3536C1 14.0872 1.216 13.8712 1.48242 13.8712C1.74885 13.8712 1.96484 14.0872 1.96484 14.3536V16.4874C1.96484 17.6537 2.91375 18.6026 4.08008 18.6026H6.21387ZM20 14.3536V16.4874C20 18.1857 18.6183 19.5675 16.9199 19.5675H14.7861C14.5197 19.5675 14.3037 19.3515 14.3037 19.085C14.3037 18.8186 14.5197 18.6026 14.7861 18.6026H16.9199C18.0863 18.6026 19.0352 17.6537 19.0352 16.4874V14.3536C19.0352 14.0872 19.2512 13.8712 19.5176 13.8712C19.784 13.8712 20 14.0872 20 14.3536ZM20 3.64752V5.78131C20 6.04774 19.784 6.26373 19.5176 6.26373C19.2512 6.26373 19.0352 6.04774 19.0352 5.78131V3.64752C19.0352 2.48117 18.0863 1.53229 16.9199 1.53229H14.7861C14.5197 1.53229 14.3037 1.31629 14.3037 1.04987C14.3037 0.783439 14.5197 0.567444 14.7861 0.567444H16.9199C18.6183 0.567444 20 1.94916 20 3.64752ZM13.8292 14.6103C14.0325 14.4225 14.045 14.1056 13.8573 13.9023C13.6695 13.6991 13.3526 13.6865 13.1493 13.8742C12.4261 14.5423 11.4852 14.9102 10.5 14.9102C9.51469 14.9102 8.57378 14.5423 7.85057 13.8742C7.64729 13.6865 7.33039 13.6991 7.14264 13.9023C6.9549 14.1056 6.96746 14.4225 7.17071 14.6103C8.07961 15.4498 9.26194 15.9121 10.5 15.9121C11.738 15.9121 12.9203 15.4498 13.8292 14.6103ZM11.5019 7.72957V11.2921C11.5019 11.998 10.9276 12.5723 10.2217 12.5723H9.81347C9.53679 12.5723 9.3125 12.3481 9.3125 12.0714C9.3125 11.7947 9.53679 11.5704 9.81347 11.5704H10.2217C10.3751 11.5704 10.5 11.4455 10.5 11.2921V7.72957C10.5 7.45288 10.7243 7.22859 11.001 7.22859C11.2777 7.22859 11.5019 7.45288 11.5019 7.72957ZM14.9531 9.13045V7.70174C14.9531 7.44043 14.7413 7.22859 14.48 7.22859C14.2187 7.22859 14.0069 7.44043 14.0069 7.70174V9.13045C14.0069 9.39175 14.2187 9.60359 14.48 9.60359C14.7413 9.60359 14.9531 9.39175 14.9531 9.13045ZM6.15822 9.13045C6.15822 9.39175 6.37006 9.60359 6.63136 9.60359C6.89267 9.60359 7.10451 9.39175 7.10451 9.13045V7.70174C7.10451 7.44043 6.89267 7.22859 6.63136 7.22859C6.37006 7.22859 6.15822 7.44043 6.15822 7.70174V9.13045Z" fill="#002F0F" fill-opacity="0.2"/>
<path fill-rule="evenodd" clip-rule="evenodd" d="M1.96484 5.78131V3.64752C1.96484 2.48117 2.91375 1.53229 4.08008 1.53229H6.21387C6.48029 1.53229 6.69629 1.31629 6.69629 1.04987C6.69629 0.783439 6.48029 0.567444 6.21387 0.567444H4.08008C2.38173 0.567444 1 1.94916 1 3.64752V5.78131C1 6.04774 1.216 6.26373 1.48242 6.26373C1.74885 6.26373 1.96484 6.04774 1.96484 5.78131ZM6.21387 18.6026C6.48029 18.6026 6.69629 18.8186 6.69629 19.085C6.69629 19.3515 6.48029 19.5675 6.21387 19.5675H4.08008C2.38173 19.5675 1 18.1857 1 16.4874V14.3536C1 14.0872 1.216 13.8712 1.48242 13.8712C1.74885 13.8712 1.96484 14.0872 1.96484 14.3536V16.4874C1.96484 17.6537 2.91375 18.6026 4.08008 18.6026H6.21387ZM20 14.3536V16.4874C20 18.1857 18.6183 19.5675 16.9199 19.5675H14.7861C14.5197 19.5675 14.3037 19.3515 14.3037 19.085C14.3037 18.8186 14.5197 18.6026 14.7861 18.6026H16.9199C18.0863 18.6026 19.0352 17.6537 19.0352 16.4874V14.3536C19.0352 14.0872 19.2512 13.8712 19.5176 13.8712C19.784 13.8712 20 14.0872 20 14.3536ZM20 3.64752V5.78131C20 6.04774 19.784 6.26373 19.5176 6.26373C19.2512 6.26373 19.0352 6.04774 19.0352 5.78131V3.64752C19.0352 2.48117 18.0863 1.53229 16.9199 1.53229H14.7861C14.5197 1.53229 14.3037 1.31629 14.3037 1.04987C14.3037 0.783439 14.5197 0.567444 14.7861 0.567444H16.9199C18.6183 0.567444 20 1.94916 20 3.64752ZM13.8292 14.6103C14.0325 14.4225 14.045 14.1056 13.8573 13.9023C13.6695 13.6991 13.3526 13.6865 13.1493 13.8742C12.4261 14.5423 11.4852 14.9102 10.5 14.9102C9.51469 14.9102 8.57378 14.5423 7.85057 13.8742C7.64729 13.6865 7.33039 13.6991 7.14264 13.9023C6.9549 14.1056 6.96746 14.4225 7.17071 14.6103C8.07961 15.4498 9.26194 15.9121 10.5 15.9121C11.738 15.9121 12.9203 15.4498 13.8292 14.6103ZM11.5019 7.72957V11.2921C11.5019 11.998 10.9276 12.5723 10.2217 12.5723H9.81347C9.53679 12.5723 9.3125 12.3481 9.3125 12.0714C9.3125 11.7947 9.53679 11.5704 9.81347 11.5704H10.2217C10.3751 11.5704 10.5 11.4455 10.5 11.2921V7.72957C10.5 7.45288 10.7243 7.22859 11.001 7.22859C11.2777 7.22859 11.5019 7.45288 11.5019 7.72957ZM14.9531 9.13045V7.70174C14.9531 7.44043 14.7413 7.22859 14.48 7.22859C14.2187 7.22859 14.0069 7.44043 14.0069 7.70174V9.13045C14.0069 9.39175 14.2187 9.60359 14.48 9.60359C14.7413 9.60359 14.9531 9.39175 14.9531 9.13045ZM6.15822 9.13045C6.15822 9.39175 6.37006 9.60359 6.63136 9.60359C6.89267 9.60359 7.10451 9.39175 7.10451 9.13045V7.70174C7.10451 7.44043 6.89267 7.22859 6.63136 7.22859C6.37006 7.22859 6.15822 7.44043 6.15822 7.70174V9.13045Z" fill="#002F0F" fill-opacity="0.2"/>
<path fill-rule="evenodd" clip-rule="evenodd" d="M1.96484 5.78131V3.64752C1.96484 2.48117 2.91375 1.53229 4.08008 1.53229H6.21387C6.48029 1.53229 6.69629 1.31629 6.69629 1.04987C6.69629 0.783439 6.48029 0.567444 6.21387 0.567444H4.08008C2.38173 0.567444 1 1.94916 1 3.64752V5.78131C1 6.04774 1.216 6.26373 1.48242 6.26373C1.74885 6.26373 1.96484 6.04774 1.96484 5.78131ZM6.21387 18.6026C6.48029 18.6026 6.69629 18.8186 6.69629 19.085C6.69629 19.3515 6.48029 19.5675 6.21387 19.5675H4.08008C2.38173 19.5675 1 18.1857 1 16.4874V14.3536C1 14.0872 1.216 13.8712 1.48242 13.8712C1.74885 13.8712 1.96484 14.0872 1.96484 14.3536V16.4874C1.96484 17.6537 2.91375 18.6026 4.08008 18.6026H6.21387ZM20 14.3536V16.4874C20 18.1857 18.6183 19.5675 16.9199 19.5675H14.7861C14.5197 19.5675 14.3037 19.3515 14.3037 19.085C14.3037 18.8186 14.5197 18.6026 14.7861 18.6026H16.9199C18.0863 18.6026 19.0352 17.6537 19.0352 16.4874V14.3536C19.0352 14.0872 19.2512 13.8712 19.5176 13.8712C19.784 13.8712 20 14.0872 20 14.3536ZM20 3.64752V5.78131C20 6.04774 19.784 6.26373 19.5176 6.26373C19.2512 6.26373 19.0352 6.04774 19.0352 5.78131V3.64752C19.0352 2.48117 18.0863 1.53229 16.9199 1.53229H14.7861C14.5197 1.53229 14.3037 1.31629 14.3037 1.04987C14.3037 0.783439 14.5197 0.567444 14.7861 0.567444H16.9199C18.6183 0.567444 20 1.94916 20 3.64752ZM13.8292 14.6103C14.0325 14.4225 14.045 14.1056 13.8573 13.9023C13.6695 13.6991 13.3526 13.6865 13.1493 13.8742C12.4261 14.5423 11.4852 14.9102 10.5 14.9102C9.51469 14.9102 8.57378 14.5423 7.85057 13.8742C7.64729 13.6865 7.33039 13.6991 7.14264 13.9023C6.9549 14.1056 6.96746 14.4225 7.17071 14.6103C8.07961 15.4498 9.26194 15.9121 10.5 15.9121C11.738 15.9121 12.9203 15.4498 13.8292 14.6103ZM11.5019 7.72957V11.2921C11.5019 11.998 10.9276 12.5723 10.2217 12.5723H9.81347C9.53679 12.5723 9.3125 12.3481 9.3125 12.0714C9.3125 11.7947 9.53679 11.5704 9.81347 11.5704H10.2217C10.3751 11.5704 10.5 11.4455 10.5 11.2921V7.72957C10.5 7.45288 10.7243 7.22859 11.001 7.22859C11.2777 7.22859 11.5019 7.45288 11.5019 7.72957ZM14.9531 9.13045V7.70174C14.9531 7.44043 14.7413 7.22859 14.48 7.22859C14.2187 7.22859 14.0069 7.44043 14.0069 7.70174V9.13045C14.0069 9.39175 14.2187 9.60359 14.48 9.60359C14.7413 9.60359 14.9531 9.39175 14.9531 9.13045ZM6.15822 9.13045C6.15822 9.39175 6.37006 9.60359 6.63136 9.60359C6.89267 9.60359 7.10451 9.39175 7.10451 9.13045V7.70174C7.10451 7.44043 6.89267 7.22859 6.63136 7.22859C6.37006 7.22859 6.15822 7.44043 6.15822 7.70174V9.13045Z" fill="#002F0F" fill-opacity="0.2"/>
<path d="M13.8573 13.9023L13.9491 13.8175L13.9491 13.8175L13.8573 13.9023ZM13.8292 14.6103L13.914 14.7021L13.914 14.7021L13.8292 14.6103ZM13.1493 13.8742L13.0645 13.7824L13.0645 13.7824L13.1493 13.8742ZM7.85057 13.8742L7.93539 13.7824L7.93537 13.7824L7.85057 13.8742ZM7.14264 13.9023L7.05082 13.8175L7.05081 13.8175L7.14264 13.9023ZM7.17071 14.6103L7.0859 14.7021L7.0859 14.7021L7.17071 14.6103ZM1.83984 3.64752V5.78131H2.08984V3.64752H1.83984ZM4.08008 1.40729C2.84471 1.40729 1.83984 2.41214 1.83984 3.64752H2.08984C2.08984 2.55021 2.98278 1.65729 4.08008 1.65729V1.40729ZM6.21387 1.40729H4.08008V1.65729H6.21387V1.40729ZM6.57129 1.04987C6.57129 1.24726 6.41126 1.40729 6.21387 1.40729V1.65729C6.54933 1.65729 6.82129 1.38533 6.82129 1.04987H6.57129ZM6.21387 0.692444C6.41126 0.692444 6.57129 0.852475 6.57129 1.04987H6.82129C6.82129 0.714403 6.54933 0.442444 6.21387 0.442444V0.692444ZM4.08008 0.692444H6.21387V0.442444H4.08008V0.692444ZM1.125 3.64752C1.125 2.01819 2.45077 0.692444 4.08008 0.692444V0.442444C2.3127 0.442444 0.875 1.88012 0.875 3.64752H1.125ZM1.125 5.78131V3.64752H0.875V5.78131H1.125ZM1.48242 6.13873C1.28503 6.13873 1.125 5.9787 1.125 5.78131H0.875C0.875 6.11677 1.14696 6.38873 1.48242 6.38873V6.13873ZM1.83984 5.78131C1.83984 5.9787 1.67981 6.13873 1.48242 6.13873V6.38873C1.81788 6.38873 2.08984 6.11677 2.08984 5.78131H1.83984ZM6.82129 19.085C6.82129 18.7496 6.54933 18.4776 6.21387 18.4776V18.7276C6.41126 18.7276 6.57129 18.8876 6.57129 19.085H6.82129ZM6.21387 19.6925C6.54933 19.6925 6.82129 19.4205 6.82129 19.085H6.57129C6.57129 19.2824 6.41126 19.4425 6.21387 19.4425V19.6925ZM4.08008 19.6925H6.21387V19.4425H4.08008V19.6925ZM0.875 16.4874C0.875 18.2548 2.31269 19.6925 4.08008 19.6925V19.4425C2.45077 19.4425 1.125 18.1167 1.125 16.4874H0.875ZM0.875 14.3536V16.4874H1.125V14.3536H0.875ZM1.48242 13.7462C1.14696 13.7462 0.875 14.0181 0.875 14.3536H1.125C1.125 14.1562 1.28503 13.9962 1.48242 13.9962V13.7462ZM2.08984 14.3536C2.08984 14.0181 1.81788 13.7462 1.48242 13.7462V13.9962C1.67981 13.9962 1.83984 14.1562 1.83984 14.3536H2.08984ZM2.08984 16.4874V14.3536H1.83984V16.4874H2.08984ZM4.08008 18.4776C2.98278 18.4776 2.08984 17.5847 2.08984 16.4874H1.83984C1.83984 17.7227 2.84471 18.7276 4.08008 18.7276V18.4776ZM6.21387 18.4776H4.08008V18.7276H6.21387V18.4776ZM20.125 16.4874V14.3536H19.875V16.4874H20.125ZM16.9199 19.6925C18.6873 19.6925 20.125 18.2548 20.125 16.4874H19.875C19.875 18.1167 18.5492 19.4425 16.9199 19.4425V19.6925ZM14.7861 19.6925H16.9199V19.4425H14.7861V19.6925ZM14.1787 19.085C14.1787 19.4205 14.4507 19.6925 14.7861 19.6925V19.4425C14.5888 19.4425 14.4287 19.2824 14.4287 19.085H14.1787ZM14.7861 18.4776C14.4507 18.4776 14.1787 18.7496 14.1787 19.085H14.4287C14.4287 18.8876 14.5888 18.7276 14.7861 18.7276V18.4776ZM16.9199 18.4776H14.7861V18.7276H16.9199V18.4776ZM18.9102 16.4874C18.9102 17.5847 18.0172 18.4776 16.9199 18.4776V18.7276C18.1553 18.7276 19.1602 17.7227 19.1602 16.4874H18.9102ZM18.9102 14.3536V16.4874H19.1602V14.3536H18.9102ZM19.5176 13.7462C19.1821 13.7462 18.9102 14.0181 18.9102 14.3536H19.1602C19.1602 14.1562 19.3202 13.9962 19.5176 13.9962V13.7462ZM20.125 14.3536C20.125 14.0181 19.8531 13.7462 19.5176 13.7462V13.9962C19.715 13.9962 19.875 14.1562 19.875 14.3536H20.125ZM20.125 5.78131V3.64752H19.875V5.78131H20.125ZM19.5176 6.38873C19.8531 6.38873 20.125 6.11677 20.125 5.78131H19.875C19.875 5.9787 19.715 6.13873 19.5176 6.13873V6.38873ZM18.9102 5.78131C18.9102 6.11677 19.1821 6.38873 19.5176 6.38873V6.13873C19.3202 6.13873 19.1602 5.9787 19.1602 5.78131H18.9102ZM18.9102 3.64752V5.78131H19.1602V3.64752H18.9102ZM16.9199 1.65729C18.0172 1.65729 18.9102 2.55021 18.9102 3.64752H19.1602C19.1602 2.41214 18.1553 1.40729 16.9199 1.40729V1.65729ZM14.7861 1.65729H16.9199V1.40729H14.7861V1.65729ZM14.1787 1.04987C14.1787 1.38533 14.4507 1.65729 14.7861 1.65729V1.40729C14.5888 1.40729 14.4287 1.24726 14.4287 1.04987H14.1787ZM14.7861 0.442444C14.4507 0.442444 14.1787 0.714403 14.1787 1.04987H14.4287C14.4287 0.852475 14.5888 0.692444 14.7861 0.692444V0.442444ZM16.9199 0.442444H14.7861V0.692444H16.9199V0.442444ZM20.125 3.64752C20.125 1.88012 18.6873 0.442444 16.9199 0.442444V0.692444C18.5492 0.692444 19.875 2.01819 19.875 3.64752H20.125ZM13.7655 13.9872C13.9064 14.1397 13.8969 14.3776 13.7444 14.5185L13.914 14.7021C14.168 14.4675 14.1837 14.0715 13.9491 13.8175L13.7655 13.9872ZM13.2342 13.9661C13.3867 13.8252 13.6245 13.8346 13.7655 13.9872L13.9491 13.8175C13.7145 13.5636 13.3185 13.5479 13.0645 13.7824L13.2342 13.9661ZM10.5 15.0352C11.5166 15.0352 12.4878 14.6555 13.2342 13.9661L13.0645 13.7824C12.3644 14.4291 11.4538 14.7852 10.5 14.7852V15.0352ZM7.76576 13.9661C8.51208 14.6555 9.48327 15.0352 10.5 15.0352V14.7852C9.5461 14.7852 8.63548 14.4291 7.93539 13.7824L7.76576 13.9661ZM7.23445 13.9872C7.37537 13.8346 7.61319 13.8252 7.76577 13.9661L7.93537 13.7824C7.68138 13.5479 7.28542 13.5636 7.05082 13.8175L7.23445 13.9872ZM7.25553 14.5185C7.10299 14.3776 7.09356 14.1397 7.23446 13.9872L7.05081 13.8175C6.81624 14.0715 6.83193 14.4675 7.0859 14.7021L7.25553 14.5185ZM10.5 15.7871C9.29335 15.7871 8.14132 15.3366 7.25552 14.5185L7.0859 14.7021C8.01791 15.563 9.23052 16.0371 10.5 16.0371V15.7871ZM13.7444 14.5185C12.8586 15.3366 11.7066 15.7871 10.5 15.7871V16.0371C11.7694 16.0371 12.982 15.563 13.914 14.7021L13.7444 14.5185ZM11.6269 11.2921V7.72957H11.3769V11.2921H11.6269ZM10.2217 12.6973C10.9967 12.6973 11.6269 12.0671 11.6269 11.2921H11.3769C11.3769 11.929 10.8586 12.4473 10.2217 12.4473V12.6973ZM9.81347 12.6973H10.2217V12.4473H9.81347V12.6973ZM9.1875 12.0714C9.1875 12.4171 9.46775 12.6973 9.81347 12.6973V12.4473C9.60582 12.4473 9.4375 12.279 9.4375 12.0714H9.1875ZM9.81347 11.4454C9.46775 11.4454 9.1875 11.7256 9.1875 12.0714H9.4375C9.4375 11.8637 9.60582 11.6954 9.81347 11.6954V11.4454ZM10.2217 11.4454H9.81347V11.6954H10.2217V11.4454ZM10.375 11.2921C10.375 11.3765 10.3061 11.4454 10.2217 11.4454V11.6954C10.4442 11.6954 10.625 11.5146 10.625 11.2921H10.375ZM10.375 7.72957V11.2921H10.625V7.72957H10.375ZM11.001 7.10359C10.6552 7.10359 10.375 7.38385 10.375 7.72957H10.625C10.625 7.52192 10.7933 7.35359 11.001 7.35359V7.10359ZM11.6269 7.72957C11.6269 7.38385 11.3467 7.10359 11.001 7.10359V7.35359C11.2086 7.35359 11.3769 7.52192 11.3769 7.72957H11.6269ZM14.8281 7.70174V9.13045H15.0781V7.70174H14.8281ZM14.48 7.35359C14.6723 7.35359 14.8281 7.50947 14.8281 7.70174H15.0781C15.0781 7.3714 14.8103 7.10359 14.48 7.10359V7.35359ZM14.1319 7.70174C14.1319 7.50947 14.2877 7.35359 14.48 7.35359V7.10359C14.1497 7.10359 13.8819 7.3714 13.8819 7.70174H14.1319ZM14.1319 9.13045V7.70174H13.8819V9.13045H14.1319ZM14.48 9.47859C14.2877 9.47859 14.1319 9.32272 14.1319 9.13045H13.8819C13.8819 9.46079 14.1497 9.72859 14.48 9.72859V9.47859ZM14.8281 9.13045C14.8281 9.32272 14.6723 9.47859 14.48 9.47859V9.72859C14.8103 9.72859 15.0781 9.46079 15.0781 9.13045H14.8281ZM6.63136 9.47859C6.43909 9.47859 6.28322 9.32272 6.28322 9.13045H6.03322C6.03322 9.46079 6.30102 9.72859 6.63136 9.72859V9.47859ZM6.97951 9.13045C6.97951 9.32272 6.82363 9.47859 6.63136 9.47859V9.72859C6.9617 9.72859 7.22951 9.46079 7.22951 9.13045H6.97951ZM6.97951 7.70174V9.13045H7.22951V7.70174H6.97951ZM6.63136 7.35359C6.82363 7.35359 6.97951 7.50947 6.97951 7.70174H7.22951C7.22951 7.3714 6.9617 7.10359 6.63136 7.10359V7.35359ZM6.28322 7.70174C6.28322 7.50947 6.43909 7.35359 6.63136 7.35359V7.10359C6.30102 7.10359 6.03322 7.3714 6.03322 7.70174H6.28322ZM6.28322 9.13045V7.70174H6.03322V9.13045H6.28322Z" fill="black"/>
</svg>
