<svg width="23" height="24" viewBox="0 0 23 24" fill="none" xmlns="http://www.w3.org/2000/svg">
<path d="M20.125 20.6871H3.64167C3.43833 20.6871 3.24333 20.6063 3.09955 20.4626C2.95577 20.3188 2.875 20.1238 2.875 19.9204V3.4371" stroke="#002F0F" stroke-width="1.4375" stroke-miterlimit="10" stroke-linecap="round"/>
<path d="M20.125 20.6871H3.64167C3.43833 20.6871 3.24333 20.6063 3.09955 20.4626C2.95577 20.3188 2.875 20.1238 2.875 19.9204V3.4371" stroke="#002F0F" stroke-opacity="0.2" stroke-width="1.4375" stroke-miterlimit="10" stroke-linecap="round"/>
<path d="M20.125 20.6871H3.64167C3.43833 20.6871 3.24333 20.6063 3.09955 20.4626C2.95577 20.3188 2.875 20.1238 2.875 19.9204V3.4371" stroke="#002F0F" stroke-opacity="0.2" stroke-width="1.4375" stroke-miterlimit="10" stroke-linecap="round"/>
<path d="M20.125 20.6871H3.64167C3.43833 20.6871 3.24333 20.6063 3.09955 20.4626C2.95577 20.3188 2.875 20.1238 2.875 19.9204V3.4371" stroke="#002F0F" stroke-opacity="0.2" stroke-width="1.4375" stroke-miterlimit="10" stroke-linecap="round"/>
<path d="M20.125 20.6871H3.64167C3.43833 20.6871 3.24333 20.6063 3.09955 20.4626C2.95577 20.3188 2.875 20.1238 2.875 19.9204V3.4371" stroke="#002F0F" stroke-opacity="0.2" stroke-width="1.4375" stroke-miterlimit="10" stroke-linecap="round"/>
<path d="M20.125 20.6871H3.64167C3.43833 20.6871 3.24333 20.6063 3.09955 20.4626C2.95577 20.3188 2.875 20.1238 2.875 19.9204V3.4371" stroke="#002F0F" stroke-opacity="0.2" stroke-width="1.4375" stroke-miterlimit="10" stroke-linecap="round"/>
<path d="M20.125 20.6871H3.64167C3.43833 20.6871 3.24333 20.6063 3.09955 20.4626C2.95577 20.3188 2.875 20.1238 2.875 19.9204V3.4371" stroke="#002F0F" stroke-opacity="0.2" stroke-width="1.4375" stroke-miterlimit="10" stroke-linecap="round"/>
<path d="M20.125 20.6871H3.64167C3.43833 20.6871 3.24333 20.6063 3.09955 20.4626C2.95577 20.3188 2.875 20.1238 2.875 19.9204V3.4371" stroke="#002F0F" stroke-opacity="0.2" stroke-width="1.4375" stroke-miterlimit="10" stroke-linecap="round"/>
<path d="M5.24243 13.4708C5.17182 13.5366 5.11518 13.616 5.07589 13.7042C5.03661 13.7923 5.01549 13.8875 5.01378 13.984C5.01208 14.0805 5.02983 14.1764 5.06598 14.2659C5.10213 14.3554 5.15594 14.4367 5.22419 14.5049C5.29244 14.5732 5.37374 14.627 5.46324 14.6631C5.55273 14.6993 5.64859 14.717 5.7451 14.7153C5.84161 14.7136 5.93678 14.6925 6.02495 14.6532C6.11312 14.6139 6.19247 14.5573 6.25827 14.4867L5.24243 13.4708ZM9.58368 10.1454L10.0916 9.63752C9.95683 9.50292 9.77415 9.42731 9.58368 9.42731C9.39321 9.42731 9.21053 9.50292 9.07577 9.63752L9.58368 10.1454ZM13.417 13.9788L12.9091 14.4867C13.0439 14.6213 13.2265 14.6969 13.417 14.6969C13.6075 14.6969 13.7902 14.6213 13.9249 14.4867L13.417 13.9788ZM20.6333 7.77835C20.7602 7.6421 20.8293 7.46189 20.8261 7.27568C20.8228 7.08948 20.7473 6.91181 20.6157 6.78013C20.484 6.64844 20.3063 6.57301 20.1201 6.56972C19.9339 6.56644 19.7537 6.63556 19.6174 6.76252L20.6333 7.77835ZM6.25827 14.4867L10.0916 10.6533L9.07577 9.63752L5.24243 13.4708L6.25827 14.4867ZM9.07577 10.6533L12.9091 14.4867L13.9249 13.4708L10.0916 9.63752L9.07577 10.6533ZM13.9249 14.4867L20.6333 7.77835L19.6174 6.76252L12.9091 13.4708L13.9249 14.4867Z" fill="#002F0F"/>
<path d="M5.24243 13.4708C5.17182 13.5366 5.11518 13.616 5.07589 13.7042C5.03661 13.7923 5.01549 13.8875 5.01378 13.984C5.01208 14.0805 5.02983 14.1764 5.06598 14.2659C5.10213 14.3554 5.15594 14.4367 5.22419 14.5049C5.29244 14.5732 5.37374 14.627 5.46324 14.6631C5.55273 14.6993 5.64859 14.717 5.7451 14.7153C5.84161 14.7136 5.93678 14.6925 6.02495 14.6532C6.11312 14.6139 6.19247 14.5573 6.25827 14.4867L5.24243 13.4708ZM9.58368 10.1454L10.0916 9.63752C9.95683 9.50292 9.77415 9.42731 9.58368 9.42731C9.39321 9.42731 9.21053 9.50292 9.07577 9.63752L9.58368 10.1454ZM13.417 13.9788L12.9091 14.4867C13.0439 14.6213 13.2265 14.6969 13.417 14.6969C13.6075 14.6969 13.7902 14.6213 13.9249 14.4867L13.417 13.9788ZM20.6333 7.77835C20.7602 7.6421 20.8293 7.46189 20.8261 7.27568C20.8228 7.08948 20.7473 6.91181 20.6157 6.78013C20.484 6.64844 20.3063 6.57301 20.1201 6.56972C19.9339 6.56644 19.7537 6.63556 19.6174 6.76252L20.6333 7.77835ZM6.25827 14.4867L10.0916 10.6533L9.07577 9.63752L5.24243 13.4708L6.25827 14.4867ZM9.07577 10.6533L12.9091 14.4867L13.9249 13.4708L10.0916 9.63752L9.07577 10.6533ZM13.9249 14.4867L20.6333 7.77835L19.6174 6.76252L12.9091 13.4708L13.9249 14.4867Z" fill="#002F0F" fill-opacity="0.2"/>
<path d="M5.24243 13.4708C5.17182 13.5366 5.11518 13.616 5.07589 13.7042C5.03661 13.7923 5.01549 13.8875 5.01378 13.984C5.01208 14.0805 5.02983 14.1764 5.06598 14.2659C5.10213 14.3554 5.15594 14.4367 5.22419 14.5049C5.29244 14.5732 5.37374 14.627 5.46324 14.6631C5.55273 14.6993 5.64859 14.717 5.7451 14.7153C5.84161 14.7136 5.93678 14.6925 6.02495 14.6532C6.11312 14.6139 6.19247 14.5573 6.25827 14.4867L5.24243 13.4708ZM9.58368 10.1454L10.0916 9.63752C9.95683 9.50292 9.77415 9.42731 9.58368 9.42731C9.39321 9.42731 9.21053 9.50292 9.07577 9.63752L9.58368 10.1454ZM13.417 13.9788L12.9091 14.4867C13.0439 14.6213 13.2265 14.6969 13.417 14.6969C13.6075 14.6969 13.7902 14.6213 13.9249 14.4867L13.417 13.9788ZM20.6333 7.77835C20.7602 7.6421 20.8293 7.46189 20.8261 7.27568C20.8228 7.08948 20.7473 6.91181 20.6157 6.78013C20.484 6.64844 20.3063 6.57301 20.1201 6.56972C19.9339 6.56644 19.7537 6.63556 19.6174 6.76252L20.6333 7.77835ZM6.25827 14.4867L10.0916 10.6533L9.07577 9.63752L5.24243 13.4708L6.25827 14.4867ZM9.07577 10.6533L12.9091 14.4867L13.9249 13.4708L10.0916 9.63752L9.07577 10.6533ZM13.9249 14.4867L20.6333 7.77835L19.6174 6.76252L12.9091 13.4708L13.9249 14.4867Z" fill="#002F0F" fill-opacity="0.2"/>
<path d="M5.24243 13.4708C5.17182 13.5366 5.11518 13.616 5.07589 13.7042C5.03661 13.7923 5.01549 13.8875 5.01378 13.984C5.01208 14.0805 5.02983 14.1764 5.06598 14.2659C5.10213 14.3554 5.15594 14.4367 5.22419 14.5049C5.29244 14.5732 5.37374 14.627 5.46324 14.6631C5.55273 14.6993 5.64859 14.717 5.7451 14.7153C5.84161 14.7136 5.93678 14.6925 6.02495 14.6532C6.11312 14.6139 6.19247 14.5573 6.25827 14.4867L5.24243 13.4708ZM9.58368 10.1454L10.0916 9.63752C9.95683 9.50292 9.77415 9.42731 9.58368 9.42731C9.39321 9.42731 9.21053 9.50292 9.07577 9.63752L9.58368 10.1454ZM13.417 13.9788L12.9091 14.4867C13.0439 14.6213 13.2265 14.6969 13.417 14.6969C13.6075 14.6969 13.7902 14.6213 13.9249 14.4867L13.417 13.9788ZM20.6333 7.77835C20.7602 7.6421 20.8293 7.46189 20.8261 7.27568C20.8228 7.08948 20.7473 6.91181 20.6157 6.78013C20.484 6.64844 20.3063 6.57301 20.1201 6.56972C19.9339 6.56644 19.7537 6.63556 19.6174 6.76252L20.6333 7.77835ZM6.25827 14.4867L10.0916 10.6533L9.07577 9.63752L5.24243 13.4708L6.25827 14.4867ZM9.07577 10.6533L12.9091 14.4867L13.9249 13.4708L10.0916 9.63752L9.07577 10.6533ZM13.9249 14.4867L20.6333 7.77835L19.6174 6.76252L12.9091 13.4708L13.9249 14.4867Z" fill="#002F0F" fill-opacity="0.2"/>
<path d="M5.24243 13.4708C5.17182 13.5366 5.11518 13.616 5.07589 13.7042C5.03661 13.7923 5.01549 13.8875 5.01378 13.984C5.01208 14.0805 5.02983 14.1764 5.06598 14.2659C5.10213 14.3554 5.15594 14.4367 5.22419 14.5049C5.29244 14.5732 5.37374 14.627 5.46324 14.6631C5.55273 14.6993 5.64859 14.717 5.7451 14.7153C5.84161 14.7136 5.93678 14.6925 6.02495 14.6532C6.11312 14.6139 6.19247 14.5573 6.25827 14.4867L5.24243 13.4708ZM9.58368 10.1454L10.0916 9.63752C9.95683 9.50292 9.77415 9.42731 9.58368 9.42731C9.39321 9.42731 9.21053 9.50292 9.07577 9.63752L9.58368 10.1454ZM13.417 13.9788L12.9091 14.4867C13.0439 14.6213 13.2265 14.6969 13.417 14.6969C13.6075 14.6969 13.7902 14.6213 13.9249 14.4867L13.417 13.9788ZM20.6333 7.77835C20.7602 7.6421 20.8293 7.46189 20.8261 7.27568C20.8228 7.08948 20.7473 6.91181 20.6157 6.78013C20.484 6.64844 20.3063 6.57301 20.1201 6.56972C19.9339 6.56644 19.7537 6.63556 19.6174 6.76252L20.6333 7.77835ZM6.25827 14.4867L10.0916 10.6533L9.07577 9.63752L5.24243 13.4708L6.25827 14.4867ZM9.07577 10.6533L12.9091 14.4867L13.9249 13.4708L10.0916 9.63752L9.07577 10.6533ZM13.9249 14.4867L20.6333 7.77835L19.6174 6.76252L12.9091 13.4708L13.9249 14.4867Z" fill="#002F0F" fill-opacity="0.2"/>
<path d="M5.24243 13.4708C5.17182 13.5366 5.11518 13.616 5.07589 13.7042C5.03661 13.7923 5.01549 13.8875 5.01378 13.984C5.01208 14.0805 5.02983 14.1764 5.06598 14.2659C5.10213 14.3554 5.15594 14.4367 5.22419 14.5049C5.29244 14.5732 5.37374 14.627 5.46324 14.6631C5.55273 14.6993 5.64859 14.717 5.7451 14.7153C5.84161 14.7136 5.93678 14.6925 6.02495 14.6532C6.11312 14.6139 6.19247 14.5573 6.25827 14.4867L5.24243 13.4708ZM9.58368 10.1454L10.0916 9.63752C9.95683 9.50292 9.77415 9.42731 9.58368 9.42731C9.39321 9.42731 9.21053 9.50292 9.07577 9.63752L9.58368 10.1454ZM13.417 13.9788L12.9091 14.4867C13.0439 14.6213 13.2265 14.6969 13.417 14.6969C13.6075 14.6969 13.7902 14.6213 13.9249 14.4867L13.417 13.9788ZM20.6333 7.77835C20.7602 7.6421 20.8293 7.46189 20.8261 7.27568C20.8228 7.08948 20.7473 6.91181 20.6157 6.78013C20.484 6.64844 20.3063 6.57301 20.1201 6.56972C19.9339 6.56644 19.7537 6.63556 19.6174 6.76252L20.6333 7.77835ZM6.25827 14.4867L10.0916 10.6533L9.07577 9.63752L5.24243 13.4708L6.25827 14.4867ZM9.07577 10.6533L12.9091 14.4867L13.9249 13.4708L10.0916 9.63752L9.07577 10.6533ZM13.9249 14.4867L20.6333 7.77835L19.6174 6.76252L12.9091 13.4708L13.9249 14.4867Z" fill="#002F0F" fill-opacity="0.2"/>
<path d="M5.24243 13.4708C5.17182 13.5366 5.11518 13.616 5.07589 13.7042C5.03661 13.7923 5.01549 13.8875 5.01378 13.984C5.01208 14.0805 5.02983 14.1764 5.06598 14.2659C5.10213 14.3554 5.15594 14.4367 5.22419 14.5049C5.29244 14.5732 5.37374 14.627 5.46324 14.6631C5.55273 14.6993 5.64859 14.717 5.7451 14.7153C5.84161 14.7136 5.93678 14.6925 6.02495 14.6532C6.11312 14.6139 6.19247 14.5573 6.25827 14.4867L5.24243 13.4708ZM9.58368 10.1454L10.0916 9.63752C9.95683 9.50292 9.77415 9.42731 9.58368 9.42731C9.39321 9.42731 9.21053 9.50292 9.07577 9.63752L9.58368 10.1454ZM13.417 13.9788L12.9091 14.4867C13.0439 14.6213 13.2265 14.6969 13.417 14.6969C13.6075 14.6969 13.7902 14.6213 13.9249 14.4867L13.417 13.9788ZM20.6333 7.77835C20.7602 7.6421 20.8293 7.46189 20.8261 7.27568C20.8228 7.08948 20.7473 6.91181 20.6157 6.78013C20.484 6.64844 20.3063 6.57301 20.1201 6.56972C19.9339 6.56644 19.7537 6.63556 19.6174 6.76252L20.6333 7.77835ZM6.25827 14.4867L10.0916 10.6533L9.07577 9.63752L5.24243 13.4708L6.25827 14.4867ZM9.07577 10.6533L12.9091 14.4867L13.9249 13.4708L10.0916 9.63752L9.07577 10.6533ZM13.9249 14.4867L20.6333 7.77835L19.6174 6.76252L12.9091 13.4708L13.9249 14.4867Z" fill="#002F0F" fill-opacity="0.2"/>
<path d="M5.24243 13.4708C5.17182 13.5366 5.11518 13.616 5.07589 13.7042C5.03661 13.7923 5.01549 13.8875 5.01378 13.984C5.01208 14.0805 5.02983 14.1764 5.06598 14.2659C5.10213 14.3554 5.15594 14.4367 5.22419 14.5049C5.29244 14.5732 5.37374 14.627 5.46324 14.6631C5.55273 14.6993 5.64859 14.717 5.7451 14.7153C5.84161 14.7136 5.93678 14.6925 6.02495 14.6532C6.11312 14.6139 6.19247 14.5573 6.25827 14.4867L5.24243 13.4708ZM9.58368 10.1454L10.0916 9.63752C9.95683 9.50292 9.77415 9.42731 9.58368 9.42731C9.39321 9.42731 9.21053 9.50292 9.07577 9.63752L9.58368 10.1454ZM13.417 13.9788L12.9091 14.4867C13.0439 14.6213 13.2265 14.6969 13.417 14.6969C13.6075 14.6969 13.7902 14.6213 13.9249 14.4867L13.417 13.9788ZM20.6333 7.77835C20.7602 7.6421 20.8293 7.46189 20.8261 7.27568C20.8228 7.08948 20.7473 6.91181 20.6157 6.78013C20.484 6.64844 20.3063 6.57301 20.1201 6.56972C19.9339 6.56644 19.7537 6.63556 19.6174 6.76252L20.6333 7.77835ZM6.25827 14.4867L10.0916 10.6533L9.07577 9.63752L5.24243 13.4708L6.25827 14.4867ZM9.07577 10.6533L12.9091 14.4867L13.9249 13.4708L10.0916 9.63752L9.07577 10.6533ZM13.9249 14.4867L20.6333 7.77835L19.6174 6.76252L12.9091 13.4708L13.9249 14.4867Z" fill="#002F0F" fill-opacity="0.2"/>
</svg>
