<svg width="23" height="18" viewBox="0 0 23 18" fill="none" xmlns="http://www.w3.org/2000/svg">
<path d="M22.0521 0.610718H1.12331C0.678073 0.610718 0.318359 0.955443 0.318359 1.38213V16.8104C0.318359 17.2371 0.678073 17.5818 1.12331 17.5818H22.0521C22.4973 17.5818 22.8571 17.2371 22.8571 16.8104V1.38213C22.8571 0.955443 22.4973 0.610718 22.0521 0.610718ZM21.0459 15.8461H2.1295V2.3464H21.0459V15.8461ZM4.47142 13.8622C4.5494 13.9369 4.67769 13.9369 4.75567 13.8622L9.09487 9.70376L11.9726 12.464C12.0506 12.5387 12.1788 12.5387 12.2568 12.464L19.7278 5.29947C19.8058 5.22474 19.8058 5.10179 19.7278 5.02706L18.8021 4.13994C18.7643 4.10404 18.7132 4.08391 18.66 4.08391C18.6068 4.08391 18.5557 4.10404 18.5179 4.13994L12.116 10.2775L9.23825 7.51728C9.20043 7.48139 9.14935 7.46126 9.09613 7.46126C9.0429 7.46126 8.99182 7.48139 8.954 7.51728L3.54824 12.7002C3.51078 12.7365 3.48978 12.7854 3.48978 12.8364C3.48978 12.8874 3.51078 12.9364 3.54824 12.9726L4.47142 13.8622Z" fill="#002F0F"/>
<path d="M22.0521 0.610718H1.12331C0.678073 0.610718 0.318359 0.955443 0.318359 1.38213V16.8104C0.318359 17.2371 0.678073 17.5818 1.12331 17.5818H22.0521C22.4973 17.5818 22.8571 17.2371 22.8571 16.8104V1.38213C22.8571 0.955443 22.4973 0.610718 22.0521 0.610718ZM21.0459 15.8461H2.1295V2.3464H21.0459V15.8461ZM4.47142 13.8622C4.5494 13.9369 4.67769 13.9369 4.75567 13.8622L9.09487 9.70376L11.9726 12.464C12.0506 12.5387 12.1788 12.5387 12.2568 12.464L19.7278 5.29947C19.8058 5.22474 19.8058 5.10179 19.7278 5.02706L18.8021 4.13994C18.7643 4.10404 18.7132 4.08391 18.66 4.08391C18.6068 4.08391 18.5557 4.10404 18.5179 4.13994L12.116 10.2775L9.23825 7.51728C9.20043 7.48139 9.14935 7.46126 9.09613 7.46126C9.0429 7.46126 8.99182 7.48139 8.954 7.51728L3.54824 12.7002C3.51078 12.7365 3.48978 12.7854 3.48978 12.8364C3.48978 12.8874 3.51078 12.9364 3.54824 12.9726L4.47142 13.8622Z" fill="#002F0F" fill-opacity="0.2"/>
<path d="M22.0521 0.610718H1.12331C0.678073 0.610718 0.318359 0.955443 0.318359 1.38213V16.8104C0.318359 17.2371 0.678073 17.5818 1.12331 17.5818H22.0521C22.4973 17.5818 22.8571 17.2371 22.8571 16.8104V1.38213C22.8571 0.955443 22.4973 0.610718 22.0521 0.610718ZM21.0459 15.8461H2.1295V2.3464H21.0459V15.8461ZM4.47142 13.8622C4.5494 13.9369 4.67769 13.9369 4.75567 13.8622L9.09487 9.70376L11.9726 12.464C12.0506 12.5387 12.1788 12.5387 12.2568 12.464L19.7278 5.29947C19.8058 5.22474 19.8058 5.10179 19.7278 5.02706L18.8021 4.13994C18.7643 4.10404 18.7132 4.08391 18.66 4.08391C18.6068 4.08391 18.5557 4.10404 18.5179 4.13994L12.116 10.2775L9.23825 7.51728C9.20043 7.48139 9.14935 7.46126 9.09613 7.46126C9.0429 7.46126 8.99182 7.48139 8.954 7.51728L3.54824 12.7002C3.51078 12.7365 3.48978 12.7854 3.48978 12.8364C3.48978 12.8874 3.51078 12.9364 3.54824 12.9726L4.47142 13.8622Z" fill="#002F0F" fill-opacity="0.2"/>
<path d="M22.0521 0.610718H1.12331C0.678073 0.610718 0.318359 0.955443 0.318359 1.38213V16.8104C0.318359 17.2371 0.678073 17.5818 1.12331 17.5818H22.0521C22.4973 17.5818 22.8571 17.2371 22.8571 16.8104V1.38213C22.8571 0.955443 22.4973 0.610718 22.0521 0.610718ZM21.0459 15.8461H2.1295V2.3464H21.0459V15.8461ZM4.47142 13.8622C4.5494 13.9369 4.67769 13.9369 4.75567 13.8622L9.09487 9.70376L11.9726 12.464C12.0506 12.5387 12.1788 12.5387 12.2568 12.464L19.7278 5.29947C19.8058 5.22474 19.8058 5.10179 19.7278 5.02706L18.8021 4.13994C18.7643 4.10404 18.7132 4.08391 18.66 4.08391C18.6068 4.08391 18.5557 4.10404 18.5179 4.13994L12.116 10.2775L9.23825 7.51728C9.20043 7.48139 9.14935 7.46126 9.09613 7.46126C9.0429 7.46126 8.99182 7.48139 8.954 7.51728L3.54824 12.7002C3.51078 12.7365 3.48978 12.7854 3.48978 12.8364C3.48978 12.8874 3.51078 12.9364 3.54824 12.9726L4.47142 13.8622Z" fill="#002F0F" fill-opacity="0.2"/>
<path d="M22.0521 0.610718H1.12331C0.678073 0.610718 0.318359 0.955443 0.318359 1.38213V16.8104C0.318359 17.2371 0.678073 17.5818 1.12331 17.5818H22.0521C22.4973 17.5818 22.8571 17.2371 22.8571 16.8104V1.38213C22.8571 0.955443 22.4973 0.610718 22.0521 0.610718ZM21.0459 15.8461H2.1295V2.3464H21.0459V15.8461ZM4.47142 13.8622C4.5494 13.9369 4.67769 13.9369 4.75567 13.8622L9.09487 9.70376L11.9726 12.464C12.0506 12.5387 12.1788 12.5387 12.2568 12.464L19.7278 5.29947C19.8058 5.22474 19.8058 5.10179 19.7278 5.02706L18.8021 4.13994C18.7643 4.10404 18.7132 4.08391 18.66 4.08391C18.6068 4.08391 18.5557 4.10404 18.5179 4.13994L12.116 10.2775L9.23825 7.51728C9.20043 7.48139 9.14935 7.46126 9.09613 7.46126C9.0429 7.46126 8.99182 7.48139 8.954 7.51728L3.54824 12.7002C3.51078 12.7365 3.48978 12.7854 3.48978 12.8364C3.48978 12.8874 3.51078 12.9364 3.54824 12.9726L4.47142 13.8622Z" fill="#002F0F" fill-opacity="0.2"/>
<path d="M22.0521 0.610718H1.12331C0.678073 0.610718 0.318359 0.955443 0.318359 1.38213V16.8104C0.318359 17.2371 0.678073 17.5818 1.12331 17.5818H22.0521C22.4973 17.5818 22.8571 17.2371 22.8571 16.8104V1.38213C22.8571 0.955443 22.4973 0.610718 22.0521 0.610718ZM21.0459 15.8461H2.1295V2.3464H21.0459V15.8461ZM4.47142 13.8622C4.5494 13.9369 4.67769 13.9369 4.75567 13.8622L9.09487 9.70376L11.9726 12.464C12.0506 12.5387 12.1788 12.5387 12.2568 12.464L19.7278 5.29947C19.8058 5.22474 19.8058 5.10179 19.7278 5.02706L18.8021 4.13994C18.7643 4.10404 18.7132 4.08391 18.66 4.08391C18.6068 4.08391 18.5557 4.10404 18.5179 4.13994L12.116 10.2775L9.23825 7.51728C9.20043 7.48139 9.14935 7.46126 9.09613 7.46126C9.0429 7.46126 8.99182 7.48139 8.954 7.51728L3.54824 12.7002C3.51078 12.7365 3.48978 12.7854 3.48978 12.8364C3.48978 12.8874 3.51078 12.9364 3.54824 12.9726L4.47142 13.8622Z" fill="#002F0F" fill-opacity="0.2"/>
<path d="M22.0521 0.610718H1.12331C0.678073 0.610718 0.318359 0.955443 0.318359 1.38213V16.8104C0.318359 17.2371 0.678073 17.5818 1.12331 17.5818H22.0521C22.4973 17.5818 22.8571 17.2371 22.8571 16.8104V1.38213C22.8571 0.955443 22.4973 0.610718 22.0521 0.610718ZM21.0459 15.8461H2.1295V2.3464H21.0459V15.8461ZM4.47142 13.8622C4.5494 13.9369 4.67769 13.9369 4.75567 13.8622L9.09487 9.70376L11.9726 12.464C12.0506 12.5387 12.1788 12.5387 12.2568 12.464L19.7278 5.29947C19.8058 5.22474 19.8058 5.10179 19.7278 5.02706L18.8021 4.13994C18.7643 4.10404 18.7132 4.08391 18.66 4.08391C18.6068 4.08391 18.5557 4.10404 18.5179 4.13994L12.116 10.2775L9.23825 7.51728C9.20043 7.48139 9.14935 7.46126 9.09613 7.46126C9.0429 7.46126 8.99182 7.48139 8.954 7.51728L3.54824 12.7002C3.51078 12.7365 3.48978 12.7854 3.48978 12.8364C3.48978 12.8874 3.51078 12.9364 3.54824 12.9726L4.47142 13.8622Z" fill="#002F0F" fill-opacity="0.2"/>
<path d="M22.0521 0.610718H1.12331C0.678073 0.610718 0.318359 0.955443 0.318359 1.38213V16.8104C0.318359 17.2371 0.678073 17.5818 1.12331 17.5818H22.0521C22.4973 17.5818 22.8571 17.2371 22.8571 16.8104V1.38213C22.8571 0.955443 22.4973 0.610718 22.0521 0.610718ZM21.0459 15.8461H2.1295V2.3464H21.0459V15.8461ZM4.47142 13.8622C4.5494 13.9369 4.67769 13.9369 4.75567 13.8622L9.09487 9.70376L11.9726 12.464C12.0506 12.5387 12.1788 12.5387 12.2568 12.464L19.7278 5.29947C19.8058 5.22474 19.8058 5.10179 19.7278 5.02706L18.8021 4.13994C18.7643 4.10404 18.7132 4.08391 18.66 4.08391C18.6068 4.08391 18.5557 4.10404 18.5179 4.13994L12.116 10.2775L9.23825 7.51728C9.20043 7.48139 9.14935 7.46126 9.09613 7.46126C9.0429 7.46126 8.99182 7.48139 8.954 7.51728L3.54824 12.7002C3.51078 12.7365 3.48978 12.7854 3.48978 12.8364C3.48978 12.8874 3.51078 12.9364 3.54824 12.9726L4.47142 13.8622Z" fill="#002F0F" fill-opacity="0.2"/>
</svg>
