<svg width="254" height="75" viewBox="0 0 254 75" fill="none" xmlns="http://www.w3.org/2000/svg">
<path d="M42.1083 3.70422L2.71718 29.46C2.2697 29.7525 2 30.2511 2 30.7858V32.3551C2 32.8252 2.20881 33.271 2.56997 33.572L10.7897 40.4218C11.2309 40.7894 11.8365 40.8895 12.3725 40.6833L29.9443 33.9249C30.9818 33.5259 32.097 34.2918 32.097 35.4034V57.4628C32.097 58.0628 32.436 58.6113 32.9726 58.8796L37.5066 61.1466C38.0695 61.4281 38.7456 61.3496 39.2291 60.9467L47.4506 54.0954C47.7632 53.8349 47.9635 53.4642 48.0101 53.0601L52.6019 13.2647C52.6573 12.7844 52.4903 12.305 52.1484 11.9631L44.0953 3.90993C43.5651 3.37976 42.7358 3.29391 42.1083 3.70422Z" fill="#002F0F" stroke="#002F0F" stroke-width="3.1681"/>
<path d="M105.108 12.9297L103.804 13.3641L98.0255 4.80482H92.7248V33.6979L97.2869 35.2621L96.4179 37H83.2097V35.6531L87.2938 32.4379V4.80482H82.1234L76.3448 13.3641L75.0414 12.9297V2.06758L77.3876 2.84965H102.761L105.108 2.06758V12.9297ZM129.273 37H121.018V33.22L116.108 37.0869C115.529 37.3186 114.805 37.4345 113.936 37.4345C111.445 37.4345 109.634 36.8117 108.505 35.5662C107.404 34.3207 106.854 32.829 106.854 31.091C106.854 30.0483 107.23 29.02 107.983 28.0062C108.736 26.9924 109.808 26.0366 111.198 25.1386H121.018V22.3579C121.018 20.4752 120.511 19.1428 119.497 18.3607C118.512 17.5786 117.151 17.1876 115.413 17.1876C113.617 17.1876 111.416 18.2738 108.809 20.4462L107.505 18.7952L113.762 13.8421C114.921 13.6103 116.311 13.4945 117.933 13.4945C120.569 13.4945 122.611 14.1462 124.059 15.4497C125.507 16.7241 126.232 18.5924 126.232 21.0545V33.7414L130.142 35.2621L129.273 37ZM115.326 33.7414C117.093 33.7414 118.99 32.9303 121.018 31.3083V26.92H113.327C112.951 27.3834 112.676 27.8469 112.502 28.3103C112.357 28.7738 112.285 29.2807 112.285 29.831C112.285 30.9028 112.56 31.8297 113.11 32.6117C113.661 33.3648 114.399 33.7414 115.326 33.7414ZM160.516 37.0434H152.261V22.4014C152.261 20.8083 152.015 19.6931 151.523 19.0559C151.03 18.4186 150.147 18.1 148.872 18.1C147.916 18.1 146.961 18.2738 146.005 18.6214C145.078 18.969 143.977 19.6352 142.703 20.62V33.7848L146.613 35.3055L145.744 37.0434H133.622V35.6966L137.489 32.6552V20.3593L133.622 18.1V16.7531L141.052 13.1034L142.485 18.7517L148.655 13.8421C149.263 13.6103 150.06 13.4945 151.045 13.4945C153.014 13.4945 154.578 14.1028 155.737 15.3193C156.896 16.5069 157.475 18.129 157.475 20.1855V33.7414L161.385 35.3055L160.516 37.0434ZM187.487 37H179.232V33.22L174.322 37.0869C173.743 37.3186 173.019 37.4345 172.15 37.4345C169.659 37.4345 167.848 36.8117 166.719 35.5662C165.618 34.3207 165.068 32.829 165.068 31.091C165.068 30.0483 165.444 29.02 166.197 28.0062C166.95 26.9924 168.022 26.0366 169.412 25.1386H179.232V22.3579C179.232 20.4752 178.725 19.1428 177.711 18.3607C176.726 17.5786 175.365 17.1876 173.627 17.1876C171.831 17.1876 169.63 18.2738 167.023 20.4462L165.719 18.7952L171.976 13.8421C173.134 13.6103 174.525 13.4945 176.147 13.4945C178.783 13.4945 180.825 14.1462 182.273 15.4497C183.721 16.7241 184.446 18.5924 184.446 21.0545V33.7414L188.356 35.2621L187.487 37ZM173.54 33.7414C175.307 33.7414 177.204 32.9303 179.232 31.3083V26.92H171.541C171.165 27.3834 170.89 27.8469 170.716 28.3103C170.571 28.7738 170.499 29.2807 170.499 29.831C170.499 30.9028 170.774 31.8297 171.324 32.6117C171.874 33.3648 172.613 33.7414 173.54 33.7414ZM232.677 37H224.422V22.3579C224.422 20.7648 224.176 19.6497 223.683 19.0124C223.191 18.3752 222.308 18.0566 221.033 18.0566C220.135 18.0566 219.252 18.2303 218.383 18.5779C217.514 18.8966 216.485 19.5483 215.298 20.5331V33.7414L219.208 35.2621L218.339 37H210.084V22.3579C210.084 20.7648 209.838 19.6497 209.345 19.0124C208.853 18.3752 207.97 18.0566 206.695 18.0566C205.797 18.0566 204.914 18.2303 204.045 18.5779C203.176 18.8966 202.148 19.5483 200.96 20.5331V33.7414L204.87 35.2621L204.001 37H191.879V35.6531L195.746 32.6117V20.3159L191.879 18.0566V16.7097L199.309 13.06L200.699 18.6214L206.478 13.7986C207.086 13.5669 207.883 13.451 208.868 13.451C210.548 13.451 211.938 13.9145 213.039 14.8414C214.139 15.7393 214.834 16.9848 215.124 18.5779L220.772 13.8421C221.381 13.6103 222.177 13.4945 223.162 13.4945C225.132 13.4945 226.696 14.1028 227.854 15.3193C229.013 16.5069 229.592 18.129 229.592 20.1855V33.7414L233.546 35.2621L232.677 37ZM249.103 37H236.981V35.6531L240.848 32.6117V19.9248L236.981 17.231V15.8841L244.411 13.1034H246.062V33.7414L249.972 35.2621L249.103 37ZM243.281 0.0689639C244.15 0.0689639 244.86 0.387584 245.41 1.02482C245.99 1.66207 246.279 2.45862 246.279 3.41448C246.279 4.08069 246.076 4.71793 245.671 5.32621C245.265 5.90551 244.758 6.36896 244.15 6.71655C243.542 7.06414 242.948 7.23793 242.369 7.23793C241.5 7.23793 240.776 6.91931 240.196 6.28207C239.646 5.64483 239.371 4.84827 239.371 3.89241C239.371 3.22621 239.574 2.60345 239.979 2.02413C240.385 1.41586 240.892 0.937929 241.5 0.590342C242.108 0.242757 242.702 0.0689639 243.281 0.0689639Z" fill="#002F0F"/>
<path d="M73.2455 63.7876C73.2455 61.8179 73.6897 60.051 74.5779 58.4869C75.4662 56.9034 76.6731 55.6676 78.1986 54.7793C79.7434 53.891 81.4524 53.4469 83.3255 53.4469C85.5269 53.4469 87.4483 53.9779 89.0897 55.04C90.731 56.1021 91.9283 57.6083 92.6814 59.5586H89.5241C88.9641 58.3421 88.1531 57.4055 87.091 56.749C86.0483 56.0924 84.7931 55.7641 83.3255 55.7641C81.9159 55.7641 80.651 56.0924 79.531 56.749C78.411 57.4055 77.5324 58.3421 76.8952 59.5586C76.2579 60.7559 75.9393 62.1655 75.9393 63.7876C75.9393 65.3903 76.2579 66.8 76.8952 68.0165C77.5324 69.2138 78.411 70.1407 79.531 70.7972C80.651 71.4538 81.9159 71.7821 83.3255 71.7821C84.7931 71.7821 86.0483 71.4634 87.091 70.8262C88.1531 70.1696 88.9641 69.2331 89.5241 68.0165H92.6814C91.9283 69.9476 90.731 71.4441 89.0897 72.5062C87.4483 73.549 85.5269 74.0703 83.3255 74.0703C81.4524 74.0703 79.7434 73.6359 78.1986 72.7669C76.6731 71.8786 75.4662 70.6524 74.5779 69.0883C73.6897 67.5241 73.2455 65.7572 73.2455 63.7876ZM119.546 69.4069H110.74L109.118 73.8965H106.337L113.637 53.8234H116.678L123.949 73.8965H121.168L119.546 69.4069ZM118.793 67.2634L115.143 57.0676L111.493 67.2634H118.793ZM151.635 59.6165C151.635 61.2965 151.055 62.6965 149.897 63.8165C148.757 64.9172 147.01 65.4676 144.654 65.4676H140.773V73.8965H138.137V53.7076H144.654C146.933 53.7076 148.661 54.2579 149.839 55.3586C151.036 56.4593 151.635 57.8786 151.635 59.6165ZM144.654 63.2952C146.121 63.2952 147.203 62.9765 147.898 62.3393C148.593 61.7021 148.941 60.7945 148.941 59.6165C148.941 57.1255 147.512 55.88 144.654 55.88H140.773V63.2952H144.654ZM168.553 53.7076V73.8965H165.918V53.7076H168.553ZM196.479 53.7076V55.851H190.975V73.8965H188.34V55.851H182.807V53.7076H196.479ZM222.664 69.4069H213.859L212.237 73.8965H209.456L216.755 53.8234H219.797L227.067 73.8965H224.286L222.664 69.4069ZM221.911 67.2634L218.261 57.0676L214.612 67.2634H221.911ZM243.891 71.7531H250.958V73.8965H241.255V53.7076H243.891V71.7531Z" fill="#002F0F"/>
</svg>
