<svg width="19" height="20" viewBox="0 0 19 20" fill="none" xmlns="http://www.w3.org/2000/svg">
<g clip-path="url(#clip0_0_47)">
<path d="M6.33333 13.9583C6.77056 13.9583 7.125 13.6039 7.125 13.1667C7.125 12.7294 6.77056 12.375 6.33333 12.375C5.89611 12.375 5.54167 12.7294 5.54167 13.1667C5.54167 13.6039 5.89611 13.9583 6.33333 13.9583Z" fill="#002F0F"/>
<path d="M6.33333 13.9583C6.77056 13.9583 7.125 13.6039 7.125 13.1667C7.125 12.7294 6.77056 12.375 6.33333 12.375C5.89611 12.375 5.54167 12.7294 5.54167 13.1667C5.54167 13.6039 5.89611 13.9583 6.33333 13.9583Z" fill="#002F0F" fill-opacity="0.2"/>
<path d="M6.33333 13.9583C6.77056 13.9583 7.125 13.6039 7.125 13.1667C7.125 12.7294 6.77056 12.375 6.33333 12.375C5.89611 12.375 5.54167 12.7294 5.54167 13.1667C5.54167 13.6039 5.89611 13.9583 6.33333 13.9583Z" fill="#002F0F" fill-opacity="0.2"/>
<path d="M6.33333 13.9583C6.77056 13.9583 7.125 13.6039 7.125 13.1667C7.125 12.7294 6.77056 12.375 6.33333 12.375C5.89611 12.375 5.54167 12.7294 5.54167 13.1667C5.54167 13.6039 5.89611 13.9583 6.33333 13.9583Z" fill="#002F0F" fill-opacity="0.2"/>
<path d="M6.33333 13.9583C6.77056 13.9583 7.125 13.6039 7.125 13.1667C7.125 12.7294 6.77056 12.375 6.33333 12.375C5.89611 12.375 5.54167 12.7294 5.54167 13.1667C5.54167 13.6039 5.89611 13.9583 6.33333 13.9583Z" fill="#002F0F" fill-opacity="0.2"/>
<path d="M6.33333 13.9583C6.77056 13.9583 7.125 13.6039 7.125 13.1667C7.125 12.7294 6.77056 12.375 6.33333 12.375C5.89611 12.375 5.54167 12.7294 5.54167 13.1667C5.54167 13.6039 5.89611 13.9583 6.33333 13.9583Z" fill="#002F0F" fill-opacity="0.2"/>
<path d="M6.33333 13.9583C6.77056 13.9583 7.125 13.6039 7.125 13.1667C7.125 12.7294 6.77056 12.375 6.33333 12.375C5.89611 12.375 5.54167 12.7294 5.54167 13.1667C5.54167 13.6039 5.89611 13.9583 6.33333 13.9583Z" fill="#002F0F" fill-opacity="0.2"/>
<path d="M6.33333 13.9583C6.77056 13.9583 7.125 13.6039 7.125 13.1667C7.125 12.7294 6.77056 12.375 6.33333 12.375C5.89611 12.375 5.54167 12.7294 5.54167 13.1667C5.54167 13.6039 5.89611 13.9583 6.33333 13.9583Z" fill="#002F0F" fill-opacity="0.2"/>
<path d="M9.5 13.9583C9.93724 13.9583 10.2917 13.6039 10.2917 13.1667C10.2917 12.7294 9.93724 12.375 9.5 12.375C9.06276 12.375 8.70833 12.7294 8.70833 13.1667C8.70833 13.6039 9.06276 13.9583 9.5 13.9583Z" fill="#002F0F"/>
<path d="M9.5 13.9583C9.93724 13.9583 10.2917 13.6039 10.2917 13.1667C10.2917 12.7294 9.93724 12.375 9.5 12.375C9.06276 12.375 8.70833 12.7294 8.70833 13.1667C8.70833 13.6039 9.06276 13.9583 9.5 13.9583Z" fill="#002F0F" fill-opacity="0.2"/>
<path d="M9.5 13.9583C9.93724 13.9583 10.2917 13.6039 10.2917 13.1667C10.2917 12.7294 9.93724 12.375 9.5 12.375C9.06276 12.375 8.70833 12.7294 8.70833 13.1667C8.70833 13.6039 9.06276 13.9583 9.5 13.9583Z" fill="#002F0F" fill-opacity="0.2"/>
<path d="M9.5 13.9583C9.93724 13.9583 10.2917 13.6039 10.2917 13.1667C10.2917 12.7294 9.93724 12.375 9.5 12.375C9.06276 12.375 8.70833 12.7294 8.70833 13.1667C8.70833 13.6039 9.06276 13.9583 9.5 13.9583Z" fill="#002F0F" fill-opacity="0.2"/>
<path d="M9.5 13.9583C9.93724 13.9583 10.2917 13.6039 10.2917 13.1667C10.2917 12.7294 9.93724 12.375 9.5 12.375C9.06276 12.375 8.70833 12.7294 8.70833 13.1667C8.70833 13.6039 9.06276 13.9583 9.5 13.9583Z" fill="#002F0F" fill-opacity="0.2"/>
<path d="M9.5 13.9583C9.93724 13.9583 10.2917 13.6039 10.2917 13.1667C10.2917 12.7294 9.93724 12.375 9.5 12.375C9.06276 12.375 8.70833 12.7294 8.70833 13.1667C8.70833 13.6039 9.06276 13.9583 9.5 13.9583Z" fill="#002F0F" fill-opacity="0.2"/>
<path d="M9.5 13.9583C9.93724 13.9583 10.2917 13.6039 10.2917 13.1667C10.2917 12.7294 9.93724 12.375 9.5 12.375C9.06276 12.375 8.70833 12.7294 8.70833 13.1667C8.70833 13.6039 9.06276 13.9583 9.5 13.9583Z" fill="#002F0F" fill-opacity="0.2"/>
<path d="M9.5 13.9583C9.93724 13.9583 10.2917 13.6039 10.2917 13.1667C10.2917 12.7294 9.93724 12.375 9.5 12.375C9.06276 12.375 8.70833 12.7294 8.70833 13.1667C8.70833 13.6039 9.06276 13.9583 9.5 13.9583Z" fill="#002F0F" fill-opacity="0.2"/>
<path d="M13.4583 13.1667C13.4583 13.6039 13.1039 13.9583 12.6667 13.9583C12.2294 13.9583 11.875 13.6039 11.875 13.1667C11.875 12.7294 12.2294 12.375 12.6667 12.375C13.1039 12.375 13.4583 12.7294 13.4583 13.1667Z" fill="#002F0F"/>
<path d="M13.4583 13.1667C13.4583 13.6039 13.1039 13.9583 12.6667 13.9583C12.2294 13.9583 11.875 13.6039 11.875 13.1667C11.875 12.7294 12.2294 12.375 12.6667 12.375C13.1039 12.375 13.4583 12.7294 13.4583 13.1667Z" fill="#002F0F" fill-opacity="0.2"/>
<path d="M13.4583 13.1667C13.4583 13.6039 13.1039 13.9583 12.6667 13.9583C12.2294 13.9583 11.875 13.6039 11.875 13.1667C11.875 12.7294 12.2294 12.375 12.6667 12.375C13.1039 12.375 13.4583 12.7294 13.4583 13.1667Z" fill="#002F0F" fill-opacity="0.2"/>
<path d="M13.4583 13.1667C13.4583 13.6039 13.1039 13.9583 12.6667 13.9583C12.2294 13.9583 11.875 13.6039 11.875 13.1667C11.875 12.7294 12.2294 12.375 12.6667 12.375C13.1039 12.375 13.4583 12.7294 13.4583 13.1667Z" fill="#002F0F" fill-opacity="0.2"/>
<path d="M13.4583 13.1667C13.4583 13.6039 13.1039 13.9583 12.6667 13.9583C12.2294 13.9583 11.875 13.6039 11.875 13.1667C11.875 12.7294 12.2294 12.375 12.6667 12.375C13.1039 12.375 13.4583 12.7294 13.4583 13.1667Z" fill="#002F0F" fill-opacity="0.2"/>
<path d="M13.4583 13.1667C13.4583 13.6039 13.1039 13.9583 12.6667 13.9583C12.2294 13.9583 11.875 13.6039 11.875 13.1667C11.875 12.7294 12.2294 12.375 12.6667 12.375C13.1039 12.375 13.4583 12.7294 13.4583 13.1667Z" fill="#002F0F" fill-opacity="0.2"/>
<path d="M13.4583 13.1667C13.4583 13.6039 13.1039 13.9583 12.6667 13.9583C12.2294 13.9583 11.875 13.6039 11.875 13.1667C11.875 12.7294 12.2294 12.375 12.6667 12.375C13.1039 12.375 13.4583 12.7294 13.4583 13.1667Z" fill="#002F0F" fill-opacity="0.2"/>
<path d="M13.4583 13.1667C13.4583 13.6039 13.1039 13.9583 12.6667 13.9583C12.2294 13.9583 11.875 13.6039 11.875 13.1667C11.875 12.7294 12.2294 12.375 12.6667 12.375C13.1039 12.375 13.4583 12.7294 13.4583 13.1667Z" fill="#002F0F" fill-opacity="0.2"/>
<path fill-rule="evenodd" clip-rule="evenodd" d="M5.34375 6.83331C5.34375 4.53788 7.20457 2.67706 9.5 2.67706C11.4359 2.67706 13.0639 4.00106 13.5253 5.79381C13.6071 6.11138 13.9308 6.30256 14.2483 6.22082C14.566 6.13908 14.7571 5.81539 14.6754 5.49782C14.0822 3.19315 11.9908 1.48956 9.5 1.48956C6.54873 1.48956 4.15625 3.88204 4.15625 6.83331V7.86467C3.97668 7.8773 3.80743 7.89373 3.6482 7.91514C2.93561 8.01095 2.33563 8.2159 1.85911 8.69238C1.38259 9.16897 1.17764 9.76889 1.08183 10.4815C0.989552 11.1678 0.989568 12.0405 0.989584 13.1232V13.2101C0.989568 14.2928 0.989552 15.1654 1.08183 15.8518C1.17764 16.5644 1.38259 17.1643 1.85911 17.6408C2.33563 18.1174 2.93561 18.3224 3.6482 18.4182C4.33455 18.5104 5.20722 18.5104 6.28989 18.5104H12.7101C13.7928 18.5104 14.6655 18.5104 15.3518 18.4182C16.0644 18.3224 16.6643 18.1174 17.1409 17.6408C17.6174 17.1643 17.8224 16.5644 17.9182 15.8518C18.0104 15.1654 18.0104 14.2928 18.0104 13.2101V13.1232C18.0104 12.0405 18.0104 11.1678 17.9182 10.4815C17.8224 9.76889 17.6174 9.16897 17.1409 8.69238C16.6643 8.2159 16.0644 8.01095 15.3518 7.91514C14.6655 7.82286 13.7928 7.82288 12.7101 7.8229H6.28989C5.95461 7.82289 5.63946 7.82289 5.34375 7.82562V6.83331ZM3.80643 9.09202C3.22553 9.17015 2.9179 9.31297 2.6988 9.5321C2.4797 9.75124 2.33684 10.0588 2.25874 10.6397C2.17834 11.2378 2.17708 12.0303 2.17708 13.1666C2.17708 14.303 2.17834 15.0955 2.25874 15.6936C2.33684 16.2745 2.4797 16.5821 2.6988 16.8012C2.9179 17.0203 3.22553 17.1631 3.80643 17.2413C4.40441 17.3216 5.19697 17.3229 6.33333 17.3229H12.6667C13.803 17.3229 14.5956 17.3216 15.1936 17.2413C15.7745 17.1631 16.0821 17.0203 16.3012 16.8012C16.5203 16.5821 16.6632 16.2745 16.7413 15.6936C16.8216 15.0955 16.8229 14.303 16.8229 13.1666C16.8229 12.0303 16.8216 11.2378 16.7413 10.6397C16.6632 10.0588 16.5203 9.75124 16.3012 9.5321C16.0821 9.31297 15.7745 9.17015 15.1936 9.09202C14.5956 9.01166 13.803 9.0104 12.6667 9.0104H6.33333C5.19697 9.0104 4.40441 9.01166 3.80643 9.09202Z" fill="#002F0F"/>
<path fill-rule="evenodd" clip-rule="evenodd" d="M5.34375 6.83331C5.34375 4.53788 7.20457 2.67706 9.5 2.67706C11.4359 2.67706 13.0639 4.00106 13.5253 5.79381C13.6071 6.11138 13.9308 6.30256 14.2483 6.22082C14.566 6.13908 14.7571 5.81539 14.6754 5.49782C14.0822 3.19315 11.9908 1.48956 9.5 1.48956C6.54873 1.48956 4.15625 3.88204 4.15625 6.83331V7.86467C3.97668 7.8773 3.80743 7.89373 3.6482 7.91514C2.93561 8.01095 2.33563 8.2159 1.85911 8.69238C1.38259 9.16897 1.17764 9.76889 1.08183 10.4815C0.989552 11.1678 0.989568 12.0405 0.989584 13.1232V13.2101C0.989568 14.2928 0.989552 15.1654 1.08183 15.8518C1.17764 16.5644 1.38259 17.1643 1.85911 17.6408C2.33563 18.1174 2.93561 18.3224 3.6482 18.4182C4.33455 18.5104 5.20722 18.5104 6.28989 18.5104H12.7101C13.7928 18.5104 14.6655 18.5104 15.3518 18.4182C16.0644 18.3224 16.6643 18.1174 17.1409 17.6408C17.6174 17.1643 17.8224 16.5644 17.9182 15.8518C18.0104 15.1654 18.0104 14.2928 18.0104 13.2101V13.1232C18.0104 12.0405 18.0104 11.1678 17.9182 10.4815C17.8224 9.76889 17.6174 9.16897 17.1409 8.69238C16.6643 8.2159 16.0644 8.01095 15.3518 7.91514C14.6655 7.82286 13.7928 7.82288 12.7101 7.8229H6.28989C5.95461 7.82289 5.63946 7.82289 5.34375 7.82562V6.83331ZM3.80643 9.09202C3.22553 9.17015 2.9179 9.31297 2.6988 9.5321C2.4797 9.75124 2.33684 10.0588 2.25874 10.6397C2.17834 11.2378 2.17708 12.0303 2.17708 13.1666C2.17708 14.303 2.17834 15.0955 2.25874 15.6936C2.33684 16.2745 2.4797 16.5821 2.6988 16.8012C2.9179 17.0203 3.22553 17.1631 3.80643 17.2413C4.40441 17.3216 5.19697 17.3229 6.33333 17.3229H12.6667C13.803 17.3229 14.5956 17.3216 15.1936 17.2413C15.7745 17.1631 16.0821 17.0203 16.3012 16.8012C16.5203 16.5821 16.6632 16.2745 16.7413 15.6936C16.8216 15.0955 16.8229 14.303 16.8229 13.1666C16.8229 12.0303 16.8216 11.2378 16.7413 10.6397C16.6632 10.0588 16.5203 9.75124 16.3012 9.5321C16.0821 9.31297 15.7745 9.17015 15.1936 9.09202C14.5956 9.01166 13.803 9.0104 12.6667 9.0104H6.33333C5.19697 9.0104 4.40441 9.01166 3.80643 9.09202Z" fill="#002F0F" fill-opacity="0.2"/>
<path fill-rule="evenodd" clip-rule="evenodd" d="M5.34375 6.83331C5.34375 4.53788 7.20457 2.67706 9.5 2.67706C11.4359 2.67706 13.0639 4.00106 13.5253 5.79381C13.6071 6.11138 13.9308 6.30256 14.2483 6.22082C14.566 6.13908 14.7571 5.81539 14.6754 5.49782C14.0822 3.19315 11.9908 1.48956 9.5 1.48956C6.54873 1.48956 4.15625 3.88204 4.15625 6.83331V7.86467C3.97668 7.8773 3.80743 7.89373 3.6482 7.91514C2.93561 8.01095 2.33563 8.2159 1.85911 8.69238C1.38259 9.16897 1.17764 9.76889 1.08183 10.4815C0.989552 11.1678 0.989568 12.0405 0.989584 13.1232V13.2101C0.989568 14.2928 0.989552 15.1654 1.08183 15.8518C1.17764 16.5644 1.38259 17.1643 1.85911 17.6408C2.33563 18.1174 2.93561 18.3224 3.6482 18.4182C4.33455 18.5104 5.20722 18.5104 6.28989 18.5104H12.7101C13.7928 18.5104 14.6655 18.5104 15.3518 18.4182C16.0644 18.3224 16.6643 18.1174 17.1409 17.6408C17.6174 17.1643 17.8224 16.5644 17.9182 15.8518C18.0104 15.1654 18.0104 14.2928 18.0104 13.2101V13.1232C18.0104 12.0405 18.0104 11.1678 17.9182 10.4815C17.8224 9.76889 17.6174 9.16897 17.1409 8.69238C16.6643 8.2159 16.0644 8.01095 15.3518 7.91514C14.6655 7.82286 13.7928 7.82288 12.7101 7.8229H6.28989C5.95461 7.82289 5.63946 7.82289 5.34375 7.82562V6.83331ZM3.80643 9.09202C3.22553 9.17015 2.9179 9.31297 2.6988 9.5321C2.4797 9.75124 2.33684 10.0588 2.25874 10.6397C2.17834 11.2378 2.17708 12.0303 2.17708 13.1666C2.17708 14.303 2.17834 15.0955 2.25874 15.6936C2.33684 16.2745 2.4797 16.5821 2.6988 16.8012C2.9179 17.0203 3.22553 17.1631 3.80643 17.2413C4.40441 17.3216 5.19697 17.3229 6.33333 17.3229H12.6667C13.803 17.3229 14.5956 17.3216 15.1936 17.2413C15.7745 17.1631 16.0821 17.0203 16.3012 16.8012C16.5203 16.5821 16.6632 16.2745 16.7413 15.6936C16.8216 15.0955 16.8229 14.303 16.8229 13.1666C16.8229 12.0303 16.8216 11.2378 16.7413 10.6397C16.6632 10.0588 16.5203 9.75124 16.3012 9.5321C16.0821 9.31297 15.7745 9.17015 15.1936 9.09202C14.5956 9.01166 13.803 9.0104 12.6667 9.0104H6.33333C5.19697 9.0104 4.40441 9.01166 3.80643 9.09202Z" fill="#002F0F" fill-opacity="0.2"/>
<path fill-rule="evenodd" clip-rule="evenodd" d="M5.34375 6.83331C5.34375 4.53788 7.20457 2.67706 9.5 2.67706C11.4359 2.67706 13.0639 4.00106 13.5253 5.79381C13.6071 6.11138 13.9308 6.30256 14.2483 6.22082C14.566 6.13908 14.7571 5.81539 14.6754 5.49782C14.0822 3.19315 11.9908 1.48956 9.5 1.48956C6.54873 1.48956 4.15625 3.88204 4.15625 6.83331V7.86467C3.97668 7.8773 3.80743 7.89373 3.6482 7.91514C2.93561 8.01095 2.33563 8.2159 1.85911 8.69238C1.38259 9.16897 1.17764 9.76889 1.08183 10.4815C0.989552 11.1678 0.989568 12.0405 0.989584 13.1232V13.2101C0.989568 14.2928 0.989552 15.1654 1.08183 15.8518C1.17764 16.5644 1.38259 17.1643 1.85911 17.6408C2.33563 18.1174 2.93561 18.3224 3.6482 18.4182C4.33455 18.5104 5.20722 18.5104 6.28989 18.5104H12.7101C13.7928 18.5104 14.6655 18.5104 15.3518 18.4182C16.0644 18.3224 16.6643 18.1174 17.1409 17.6408C17.6174 17.1643 17.8224 16.5644 17.9182 15.8518C18.0104 15.1654 18.0104 14.2928 18.0104 13.2101V13.1232C18.0104 12.0405 18.0104 11.1678 17.9182 10.4815C17.8224 9.76889 17.6174 9.16897 17.1409 8.69238C16.6643 8.2159 16.0644 8.01095 15.3518 7.91514C14.6655 7.82286 13.7928 7.82288 12.7101 7.8229H6.28989C5.95461 7.82289 5.63946 7.82289 5.34375 7.82562V6.83331ZM3.80643 9.09202C3.22553 9.17015 2.9179 9.31297 2.6988 9.5321C2.4797 9.75124 2.33684 10.0588 2.25874 10.6397C2.17834 11.2378 2.17708 12.0303 2.17708 13.1666C2.17708 14.303 2.17834 15.0955 2.25874 15.6936C2.33684 16.2745 2.4797 16.5821 2.6988 16.8012C2.9179 17.0203 3.22553 17.1631 3.80643 17.2413C4.40441 17.3216 5.19697 17.3229 6.33333 17.3229H12.6667C13.803 17.3229 14.5956 17.3216 15.1936 17.2413C15.7745 17.1631 16.0821 17.0203 16.3012 16.8012C16.5203 16.5821 16.6632 16.2745 16.7413 15.6936C16.8216 15.0955 16.8229 14.303 16.8229 13.1666C16.8229 12.0303 16.8216 11.2378 16.7413 10.6397C16.6632 10.0588 16.5203 9.75124 16.3012 9.5321C16.0821 9.31297 15.7745 9.17015 15.1936 9.09202C14.5956 9.01166 13.803 9.0104 12.6667 9.0104H6.33333C5.19697 9.0104 4.40441 9.01166 3.80643 9.09202Z" fill="#002F0F" fill-opacity="0.2"/>
<path fill-rule="evenodd" clip-rule="evenodd" d="M5.34375 6.83331C5.34375 4.53788 7.20457 2.67706 9.5 2.67706C11.4359 2.67706 13.0639 4.00106 13.5253 5.79381C13.6071 6.11138 13.9308 6.30256 14.2483 6.22082C14.566 6.13908 14.7571 5.81539 14.6754 5.49782C14.0822 3.19315 11.9908 1.48956 9.5 1.48956C6.54873 1.48956 4.15625 3.88204 4.15625 6.83331V7.86467C3.97668 7.8773 3.80743 7.89373 3.6482 7.91514C2.93561 8.01095 2.33563 8.2159 1.85911 8.69238C1.38259 9.16897 1.17764 9.76889 1.08183 10.4815C0.989552 11.1678 0.989568 12.0405 0.989584 13.1232V13.2101C0.989568 14.2928 0.989552 15.1654 1.08183 15.8518C1.17764 16.5644 1.38259 17.1643 1.85911 17.6408C2.33563 18.1174 2.93561 18.3224 3.6482 18.4182C4.33455 18.5104 5.20722 18.5104 6.28989 18.5104H12.7101C13.7928 18.5104 14.6655 18.5104 15.3518 18.4182C16.0644 18.3224 16.6643 18.1174 17.1409 17.6408C17.6174 17.1643 17.8224 16.5644 17.9182 15.8518C18.0104 15.1654 18.0104 14.2928 18.0104 13.2101V13.1232C18.0104 12.0405 18.0104 11.1678 17.9182 10.4815C17.8224 9.76889 17.6174 9.16897 17.1409 8.69238C16.6643 8.2159 16.0644 8.01095 15.3518 7.91514C14.6655 7.82286 13.7928 7.82288 12.7101 7.8229H6.28989C5.95461 7.82289 5.63946 7.82289 5.34375 7.82562V6.83331ZM3.80643 9.09202C3.22553 9.17015 2.9179 9.31297 2.6988 9.5321C2.4797 9.75124 2.33684 10.0588 2.25874 10.6397C2.17834 11.2378 2.17708 12.0303 2.17708 13.1666C2.17708 14.303 2.17834 15.0955 2.25874 15.6936C2.33684 16.2745 2.4797 16.5821 2.6988 16.8012C2.9179 17.0203 3.22553 17.1631 3.80643 17.2413C4.40441 17.3216 5.19697 17.3229 6.33333 17.3229H12.6667C13.803 17.3229 14.5956 17.3216 15.1936 17.2413C15.7745 17.1631 16.0821 17.0203 16.3012 16.8012C16.5203 16.5821 16.6632 16.2745 16.7413 15.6936C16.8216 15.0955 16.8229 14.303 16.8229 13.1666C16.8229 12.0303 16.8216 11.2378 16.7413 10.6397C16.6632 10.0588 16.5203 9.75124 16.3012 9.5321C16.0821 9.31297 15.7745 9.17015 15.1936 9.09202C14.5956 9.01166 13.803 9.0104 12.6667 9.0104H6.33333C5.19697 9.0104 4.40441 9.01166 3.80643 9.09202Z" fill="#002F0F" fill-opacity="0.2"/>
<path fill-rule="evenodd" clip-rule="evenodd" d="M5.34375 6.83331C5.34375 4.53788 7.20457 2.67706 9.5 2.67706C11.4359 2.67706 13.0639 4.00106 13.5253 5.79381C13.6071 6.11138 13.9308 6.30256 14.2483 6.22082C14.566 6.13908 14.7571 5.81539 14.6754 5.49782C14.0822 3.19315 11.9908 1.48956 9.5 1.48956C6.54873 1.48956 4.15625 3.88204 4.15625 6.83331V7.86467C3.97668 7.8773 3.80743 7.89373 3.6482 7.91514C2.93561 8.01095 2.33563 8.2159 1.85911 8.69238C1.38259 9.16897 1.17764 9.76889 1.08183 10.4815C0.989552 11.1678 0.989568 12.0405 0.989584 13.1232V13.2101C0.989568 14.2928 0.989552 15.1654 1.08183 15.8518C1.17764 16.5644 1.38259 17.1643 1.85911 17.6408C2.33563 18.1174 2.93561 18.3224 3.6482 18.4182C4.33455 18.5104 5.20722 18.5104 6.28989 18.5104H12.7101C13.7928 18.5104 14.6655 18.5104 15.3518 18.4182C16.0644 18.3224 16.6643 18.1174 17.1409 17.6408C17.6174 17.1643 17.8224 16.5644 17.9182 15.8518C18.0104 15.1654 18.0104 14.2928 18.0104 13.2101V13.1232C18.0104 12.0405 18.0104 11.1678 17.9182 10.4815C17.8224 9.76889 17.6174 9.16897 17.1409 8.69238C16.6643 8.2159 16.0644 8.01095 15.3518 7.91514C14.6655 7.82286 13.7928 7.82288 12.7101 7.8229H6.28989C5.95461 7.82289 5.63946 7.82289 5.34375 7.82562V6.83331ZM3.80643 9.09202C3.22553 9.17015 2.9179 9.31297 2.6988 9.5321C2.4797 9.75124 2.33684 10.0588 2.25874 10.6397C2.17834 11.2378 2.17708 12.0303 2.17708 13.1666C2.17708 14.303 2.17834 15.0955 2.25874 15.6936C2.33684 16.2745 2.4797 16.5821 2.6988 16.8012C2.9179 17.0203 3.22553 17.1631 3.80643 17.2413C4.40441 17.3216 5.19697 17.3229 6.33333 17.3229H12.6667C13.803 17.3229 14.5956 17.3216 15.1936 17.2413C15.7745 17.1631 16.0821 17.0203 16.3012 16.8012C16.5203 16.5821 16.6632 16.2745 16.7413 15.6936C16.8216 15.0955 16.8229 14.303 16.8229 13.1666C16.8229 12.0303 16.8216 11.2378 16.7413 10.6397C16.6632 10.0588 16.5203 9.75124 16.3012 9.5321C16.0821 9.31297 15.7745 9.17015 15.1936 9.09202C14.5956 9.01166 13.803 9.0104 12.6667 9.0104H6.33333C5.19697 9.0104 4.40441 9.01166 3.80643 9.09202Z" fill="#002F0F" fill-opacity="0.2"/>
<path fill-rule="evenodd" clip-rule="evenodd" d="M5.34375 6.83331C5.34375 4.53788 7.20457 2.67706 9.5 2.67706C11.4359 2.67706 13.0639 4.00106 13.5253 5.79381C13.6071 6.11138 13.9308 6.30256 14.2483 6.22082C14.566 6.13908 14.7571 5.81539 14.6754 5.49782C14.0822 3.19315 11.9908 1.48956 9.5 1.48956C6.54873 1.48956 4.15625 3.88204 4.15625 6.83331V7.86467C3.97668 7.8773 3.80743 7.89373 3.6482 7.91514C2.93561 8.01095 2.33563 8.2159 1.85911 8.69238C1.38259 9.16897 1.17764 9.76889 1.08183 10.4815C0.989552 11.1678 0.989568 12.0405 0.989584 13.1232V13.2101C0.989568 14.2928 0.989552 15.1654 1.08183 15.8518C1.17764 16.5644 1.38259 17.1643 1.85911 17.6408C2.33563 18.1174 2.93561 18.3224 3.6482 18.4182C4.33455 18.5104 5.20722 18.5104 6.28989 18.5104H12.7101C13.7928 18.5104 14.6655 18.5104 15.3518 18.4182C16.0644 18.3224 16.6643 18.1174 17.1409 17.6408C17.6174 17.1643 17.8224 16.5644 17.9182 15.8518C18.0104 15.1654 18.0104 14.2928 18.0104 13.2101V13.1232C18.0104 12.0405 18.0104 11.1678 17.9182 10.4815C17.8224 9.76889 17.6174 9.16897 17.1409 8.69238C16.6643 8.2159 16.0644 8.01095 15.3518 7.91514C14.6655 7.82286 13.7928 7.82288 12.7101 7.8229H6.28989C5.95461 7.82289 5.63946 7.82289 5.34375 7.82562V6.83331ZM3.80643 9.09202C3.22553 9.17015 2.9179 9.31297 2.6988 9.5321C2.4797 9.75124 2.33684 10.0588 2.25874 10.6397C2.17834 11.2378 2.17708 12.0303 2.17708 13.1666C2.17708 14.303 2.17834 15.0955 2.25874 15.6936C2.33684 16.2745 2.4797 16.5821 2.6988 16.8012C2.9179 17.0203 3.22553 17.1631 3.80643 17.2413C4.40441 17.3216 5.19697 17.3229 6.33333 17.3229H12.6667C13.803 17.3229 14.5956 17.3216 15.1936 17.2413C15.7745 17.1631 16.0821 17.0203 16.3012 16.8012C16.5203 16.5821 16.6632 16.2745 16.7413 15.6936C16.8216 15.0955 16.8229 14.303 16.8229 13.1666C16.8229 12.0303 16.8216 11.2378 16.7413 10.6397C16.6632 10.0588 16.5203 9.75124 16.3012 9.5321C16.0821 9.31297 15.7745 9.17015 15.1936 9.09202C14.5956 9.01166 13.803 9.0104 12.6667 9.0104H6.33333C5.19697 9.0104 4.40441 9.01166 3.80643 9.09202Z" fill="#002F0F" fill-opacity="0.2"/>
<path fill-rule="evenodd" clip-rule="evenodd" d="M5.34375 6.83331C5.34375 4.53788 7.20457 2.67706 9.5 2.67706C11.4359 2.67706 13.0639 4.00106 13.5253 5.79381C13.6071 6.11138 13.9308 6.30256 14.2483 6.22082C14.566 6.13908 14.7571 5.81539 14.6754 5.49782C14.0822 3.19315 11.9908 1.48956 9.5 1.48956C6.54873 1.48956 4.15625 3.88204 4.15625 6.83331V7.86467C3.97668 7.8773 3.80743 7.89373 3.6482 7.91514C2.93561 8.01095 2.33563 8.2159 1.85911 8.69238C1.38259 9.16897 1.17764 9.76889 1.08183 10.4815C0.989552 11.1678 0.989568 12.0405 0.989584 13.1232V13.2101C0.989568 14.2928 0.989552 15.1654 1.08183 15.8518C1.17764 16.5644 1.38259 17.1643 1.85911 17.6408C2.33563 18.1174 2.93561 18.3224 3.6482 18.4182C4.33455 18.5104 5.20722 18.5104 6.28989 18.5104H12.7101C13.7928 18.5104 14.6655 18.5104 15.3518 18.4182C16.0644 18.3224 16.6643 18.1174 17.1409 17.6408C17.6174 17.1643 17.8224 16.5644 17.9182 15.8518C18.0104 15.1654 18.0104 14.2928 18.0104 13.2101V13.1232C18.0104 12.0405 18.0104 11.1678 17.9182 10.4815C17.8224 9.76889 17.6174 9.16897 17.1409 8.69238C16.6643 8.2159 16.0644 8.01095 15.3518 7.91514C14.6655 7.82286 13.7928 7.82288 12.7101 7.8229H6.28989C5.95461 7.82289 5.63946 7.82289 5.34375 7.82562V6.83331ZM3.80643 9.09202C3.22553 9.17015 2.9179 9.31297 2.6988 9.5321C2.4797 9.75124 2.33684 10.0588 2.25874 10.6397C2.17834 11.2378 2.17708 12.0303 2.17708 13.1666C2.17708 14.303 2.17834 15.0955 2.25874 15.6936C2.33684 16.2745 2.4797 16.5821 2.6988 16.8012C2.9179 17.0203 3.22553 17.1631 3.80643 17.2413C4.40441 17.3216 5.19697 17.3229 6.33333 17.3229H12.6667C13.803 17.3229 14.5956 17.3216 15.1936 17.2413C15.7745 17.1631 16.0821 17.0203 16.3012 16.8012C16.5203 16.5821 16.6632 16.2745 16.7413 15.6936C16.8216 15.0955 16.8229 14.303 16.8229 13.1666C16.8229 12.0303 16.8216 11.2378 16.7413 10.6397C16.6632 10.0588 16.5203 9.75124 16.3012 9.5321C16.0821 9.31297 15.7745 9.17015 15.1936 9.09202C14.5956 9.01166 13.803 9.0104 12.6667 9.0104H6.33333C5.19697 9.0104 4.40441 9.01166 3.80643 9.09202Z" fill="#002F0F" fill-opacity="0.2"/>
</g>
<defs>
<clipPath id="clip0_0_47">
<rect width="19" height="19" fill="white" transform="translate(0 0.5)"/>
</clipPath>
</defs>
</svg>
