<svg width="19" height="24" viewBox="0 0 19 24" fill="none" xmlns="http://www.w3.org/2000/svg">
<circle cx="9.65132" cy="6.81245" r="5.12812" stroke="#002F0F" stroke-width="1.60991" stroke-linecap="round" stroke-linejoin="round"/>
<circle cx="9.65132" cy="6.81245" r="5.12812" stroke="#002F0F" stroke-opacity="0.2" stroke-width="1.60991" stroke-linecap="round" stroke-linejoin="round"/>
<circle cx="9.65132" cy="6.81245" r="5.12812" stroke="#002F0F" stroke-opacity="0.2" stroke-width="1.60991" stroke-linecap="round" stroke-linejoin="round"/>
<circle cx="9.65132" cy="6.81245" r="5.12812" stroke="#002F0F" stroke-opacity="0.2" stroke-width="1.60991" stroke-linecap="round" stroke-linejoin="round"/>
<circle cx="9.65132" cy="6.81245" r="5.12812" stroke="#002F0F" stroke-opacity="0.2" stroke-width="1.60991" stroke-linecap="round" stroke-linejoin="round"/>
<circle cx="9.65132" cy="6.81245" r="5.12812" stroke="#002F0F" stroke-opacity="0.2" stroke-width="1.60991" stroke-linecap="round" stroke-linejoin="round"/>
<circle cx="9.65132" cy="6.81245" r="5.12812" stroke="#002F0F" stroke-opacity="0.2" stroke-width="1.60991" stroke-linecap="round" stroke-linejoin="round"/>
<circle cx="9.65132" cy="6.81245" r="5.12812" stroke="#002F0F" stroke-opacity="0.2" stroke-width="1.60991" stroke-linecap="round" stroke-linejoin="round"/>
<path fill-rule="evenodd" clip-rule="evenodd" d="M1.51711 19.0729C1.51573 18.7124 1.59635 18.3563 1.75288 18.0316C2.24408 17.0492 3.62927 16.5285 4.77867 16.2927C5.60762 16.1158 6.44803 15.9977 7.29362 15.9391C8.85917 15.8016 10.4338 15.8016 11.9993 15.9391C12.8448 15.9983 13.6852 16.1165 14.5143 16.2927C15.6637 16.5285 17.0488 17.0001 17.54 18.0316C17.8548 18.6936 17.8548 19.4621 17.54 20.1241C17.0488 21.1556 15.6637 21.6272 14.5143 21.8531C13.6863 22.0373 12.8456 22.1589 11.9993 22.2166C10.7251 22.3246 9.4449 22.3443 8.16795 22.2756C7.87323 22.2756 7.58834 22.2756 7.29362 22.2166C6.45052 22.1596 5.61304 22.038 4.7885 21.8531C3.62927 21.6272 2.25391 21.1556 1.75288 20.1241C1.59715 19.7956 1.51661 19.4365 1.51711 19.0729Z" stroke="#002F0F" stroke-width="1.60991" stroke-linecap="round" stroke-linejoin="round"/>
<path fill-rule="evenodd" clip-rule="evenodd" d="M1.51711 19.0729C1.51573 18.7124 1.59635 18.3563 1.75288 18.0316C2.24408 17.0492 3.62927 16.5285 4.77867 16.2927C5.60762 16.1158 6.44803 15.9977 7.29362 15.9391C8.85917 15.8016 10.4338 15.8016 11.9993 15.9391C12.8448 15.9983 13.6852 16.1165 14.5143 16.2927C15.6637 16.5285 17.0488 17.0001 17.54 18.0316C17.8548 18.6936 17.8548 19.4621 17.54 20.1241C17.0488 21.1556 15.6637 21.6272 14.5143 21.8531C13.6863 22.0373 12.8456 22.1589 11.9993 22.2166C10.7251 22.3246 9.4449 22.3443 8.16795 22.2756C7.87323 22.2756 7.58834 22.2756 7.29362 22.2166C6.45052 22.1596 5.61304 22.038 4.7885 21.8531C3.62927 21.6272 2.25391 21.1556 1.75288 20.1241C1.59715 19.7956 1.51661 19.4365 1.51711 19.0729Z" stroke="#002F0F" stroke-opacity="0.2" stroke-width="1.60991" stroke-linecap="round" stroke-linejoin="round"/>
<path fill-rule="evenodd" clip-rule="evenodd" d="M1.51711 19.0729C1.51573 18.7124 1.59635 18.3563 1.75288 18.0316C2.24408 17.0492 3.62927 16.5285 4.77867 16.2927C5.60762 16.1158 6.44803 15.9977 7.29362 15.9391C8.85917 15.8016 10.4338 15.8016 11.9993 15.9391C12.8448 15.9983 13.6852 16.1165 14.5143 16.2927C15.6637 16.5285 17.0488 17.0001 17.54 18.0316C17.8548 18.6936 17.8548 19.4621 17.54 20.1241C17.0488 21.1556 15.6637 21.6272 14.5143 21.8531C13.6863 22.0373 12.8456 22.1589 11.9993 22.2166C10.7251 22.3246 9.4449 22.3443 8.16795 22.2756C7.87323 22.2756 7.58834 22.2756 7.29362 22.2166C6.45052 22.1596 5.61304 22.038 4.7885 21.8531C3.62927 21.6272 2.25391 21.1556 1.75288 20.1241C1.59715 19.7956 1.51661 19.4365 1.51711 19.0729Z" stroke="#002F0F" stroke-opacity="0.2" stroke-width="1.60991" stroke-linecap="round" stroke-linejoin="round"/>
<path fill-rule="evenodd" clip-rule="evenodd" d="M1.51711 19.0729C1.51573 18.7124 1.59635 18.3563 1.75288 18.0316C2.24408 17.0492 3.62927 16.5285 4.77867 16.2927C5.60762 16.1158 6.44803 15.9977 7.29362 15.9391C8.85917 15.8016 10.4338 15.8016 11.9993 15.9391C12.8448 15.9983 13.6852 16.1165 14.5143 16.2927C15.6637 16.5285 17.0488 17.0001 17.54 18.0316C17.8548 18.6936 17.8548 19.4621 17.54 20.1241C17.0488 21.1556 15.6637 21.6272 14.5143 21.8531C13.6863 22.0373 12.8456 22.1589 11.9993 22.2166C10.7251 22.3246 9.4449 22.3443 8.16795 22.2756C7.87323 22.2756 7.58834 22.2756 7.29362 22.2166C6.45052 22.1596 5.61304 22.038 4.7885 21.8531C3.62927 21.6272 2.25391 21.1556 1.75288 20.1241C1.59715 19.7956 1.51661 19.4365 1.51711 19.0729Z" stroke="#002F0F" stroke-opacity="0.2" stroke-width="1.60991" stroke-linecap="round" stroke-linejoin="round"/>
<path fill-rule="evenodd" clip-rule="evenodd" d="M1.51711 19.0729C1.51573 18.7124 1.59635 18.3563 1.75288 18.0316C2.24408 17.0492 3.62927 16.5285 4.77867 16.2927C5.60762 16.1158 6.44803 15.9977 7.29362 15.9391C8.85917 15.8016 10.4338 15.8016 11.9993 15.9391C12.8448 15.9983 13.6852 16.1165 14.5143 16.2927C15.6637 16.5285 17.0488 17.0001 17.54 18.0316C17.8548 18.6936 17.8548 19.4621 17.54 20.1241C17.0488 21.1556 15.6637 21.6272 14.5143 21.8531C13.6863 22.0373 12.8456 22.1589 11.9993 22.2166C10.7251 22.3246 9.4449 22.3443 8.16795 22.2756C7.87323 22.2756 7.58834 22.2756 7.29362 22.2166C6.45052 22.1596 5.61304 22.038 4.7885 21.8531C3.62927 21.6272 2.25391 21.1556 1.75288 20.1241C1.59715 19.7956 1.51661 19.4365 1.51711 19.0729Z" stroke="#002F0F" stroke-opacity="0.2" stroke-width="1.60991" stroke-linecap="round" stroke-linejoin="round"/>
<path fill-rule="evenodd" clip-rule="evenodd" d="M1.51711 19.0729C1.51573 18.7124 1.59635 18.3563 1.75288 18.0316C2.24408 17.0492 3.62927 16.5285 4.77867 16.2927C5.60762 16.1158 6.44803 15.9977 7.29362 15.9391C8.85917 15.8016 10.4338 15.8016 11.9993 15.9391C12.8448 15.9983 13.6852 16.1165 14.5143 16.2927C15.6637 16.5285 17.0488 17.0001 17.54 18.0316C17.8548 18.6936 17.8548 19.4621 17.54 20.1241C17.0488 21.1556 15.6637 21.6272 14.5143 21.8531C13.6863 22.0373 12.8456 22.1589 11.9993 22.2166C10.7251 22.3246 9.4449 22.3443 8.16795 22.2756C7.87323 22.2756 7.58834 22.2756 7.29362 22.2166C6.45052 22.1596 5.61304 22.038 4.7885 21.8531C3.62927 21.6272 2.25391 21.1556 1.75288 20.1241C1.59715 19.7956 1.51661 19.4365 1.51711 19.0729Z" stroke="#002F0F" stroke-opacity="0.2" stroke-width="1.60991" stroke-linecap="round" stroke-linejoin="round"/>
<path fill-rule="evenodd" clip-rule="evenodd" d="M1.51711 19.0729C1.51573 18.7124 1.59635 18.3563 1.75288 18.0316C2.24408 17.0492 3.62927 16.5285 4.77867 16.2927C5.60762 16.1158 6.44803 15.9977 7.29362 15.9391C8.85917 15.8016 10.4338 15.8016 11.9993 15.9391C12.8448 15.9983 13.6852 16.1165 14.5143 16.2927C15.6637 16.5285 17.0488 17.0001 17.54 18.0316C17.8548 18.6936 17.8548 19.4621 17.54 20.1241C17.0488 21.1556 15.6637 21.6272 14.5143 21.8531C13.6863 22.0373 12.8456 22.1589 11.9993 22.2166C10.7251 22.3246 9.4449 22.3443 8.16795 22.2756C7.87323 22.2756 7.58834 22.2756 7.29362 22.2166C6.45052 22.1596 5.61304 22.038 4.7885 21.8531C3.62927 21.6272 2.25391 21.1556 1.75288 20.1241C1.59715 19.7956 1.51661 19.4365 1.51711 19.0729Z" stroke="#002F0F" stroke-opacity="0.2" stroke-width="1.60991" stroke-linecap="round" stroke-linejoin="round"/>
<path fill-rule="evenodd" clip-rule="evenodd" d="M1.51711 19.0729C1.51573 18.7124 1.59635 18.3563 1.75288 18.0316C2.24408 17.0492 3.62927 16.5285 4.77867 16.2927C5.60762 16.1158 6.44803 15.9977 7.29362 15.9391C8.85917 15.8016 10.4338 15.8016 11.9993 15.9391C12.8448 15.9983 13.6852 16.1165 14.5143 16.2927C15.6637 16.5285 17.0488 17.0001 17.54 18.0316C17.8548 18.6936 17.8548 19.4621 17.54 20.1241C17.0488 21.1556 15.6637 21.6272 14.5143 21.8531C13.6863 22.0373 12.8456 22.1589 11.9993 22.2166C10.7251 22.3246 9.4449 22.3443 8.16795 22.2756C7.87323 22.2756 7.58834 22.2756 7.29362 22.2166C6.45052 22.1596 5.61304 22.038 4.7885 21.8531C3.62927 21.6272 2.25391 21.1556 1.75288 20.1241C1.59715 19.7956 1.51661 19.4365 1.51711 19.0729Z" stroke="#002F0F" stroke-opacity="0.2" stroke-width="1.60991" stroke-linecap="round" stroke-linejoin="round"/>
</svg>
