<svg width="24" height="24" viewBox="0 0 24 24" fill="none" xmlns="http://www.w3.org/2000/svg">
<path d="M12 14.875C13.6569 14.875 15 13.5879 15 12C15 10.4121 13.6569 9.125 12 9.125C10.3431 9.125 9 10.4121 9 12C9 13.5879 10.3431 14.875 12 14.875Z" stroke="#002F0F" stroke-width="1.5625" stroke-miterlimit="10" stroke-linecap="round" stroke-linejoin="round"/>
<path d="M12 14.875C13.6569 14.875 15 13.5879 15 12C15 10.4121 13.6569 9.125 12 9.125C10.3431 9.125 9 10.4121 9 12C9 13.5879 10.3431 14.875 12 14.875Z" stroke="#002F0F" stroke-opacity="0.2" stroke-width="1.5625" stroke-miterlimit="10" stroke-linecap="round" stroke-linejoin="round"/>
<path d="M12 14.875C13.6569 14.875 15 13.5879 15 12C15 10.4121 13.6569 9.125 12 9.125C10.3431 9.125 9 10.4121 9 12C9 13.5879 10.3431 14.875 12 14.875Z" stroke="#002F0F" stroke-opacity="0.2" stroke-width="1.5625" stroke-miterlimit="10" stroke-linecap="round" stroke-linejoin="round"/>
<path d="M12 14.875C13.6569 14.875 15 13.5879 15 12C15 10.4121 13.6569 9.125 12 9.125C10.3431 9.125 9 10.4121 9 12C9 13.5879 10.3431 14.875 12 14.875Z" stroke="#002F0F" stroke-opacity="0.2" stroke-width="1.5625" stroke-miterlimit="10" stroke-linecap="round" stroke-linejoin="round"/>
<path d="M12 14.875C13.6569 14.875 15 13.5879 15 12C15 10.4121 13.6569 9.125 12 9.125C10.3431 9.125 9 10.4121 9 12C9 13.5879 10.3431 14.875 12 14.875Z" stroke="#002F0F" stroke-opacity="0.2" stroke-width="1.5625" stroke-miterlimit="10" stroke-linecap="round" stroke-linejoin="round"/>
<path d="M12 14.875C13.6569 14.875 15 13.5879 15 12C15 10.4121 13.6569 9.125 12 9.125C10.3431 9.125 9 10.4121 9 12C9 13.5879 10.3431 14.875 12 14.875Z" stroke="#002F0F" stroke-opacity="0.2" stroke-width="1.5625" stroke-miterlimit="10" stroke-linecap="round" stroke-linejoin="round"/>
<path d="M12 14.875C13.6569 14.875 15 13.5879 15 12C15 10.4121 13.6569 9.125 12 9.125C10.3431 9.125 9 10.4121 9 12C9 13.5879 10.3431 14.875 12 14.875Z" stroke="#002F0F" stroke-opacity="0.2" stroke-width="1.5625" stroke-miterlimit="10" stroke-linecap="round" stroke-linejoin="round"/>
<path d="M12 14.875C13.6569 14.875 15 13.5879 15 12C15 10.4121 13.6569 9.125 12 9.125C10.3431 9.125 9 10.4121 9 12C9 13.5879 10.3431 14.875 12 14.875Z" stroke="#002F0F" stroke-opacity="0.2" stroke-width="1.5625" stroke-miterlimit="10" stroke-linecap="round" stroke-linejoin="round"/>
<path d="M2 12.8432V11.1566C2 10.1599 2.85 9.33578 3.9 9.33578C5.71 9.33578 6.45 8.10911 5.54 6.60453C5.02 5.74203 5.33 4.62078 6.24 4.12244L7.97 3.17369C8.76 2.72328 9.78 2.99161 10.25 3.74869L10.36 3.93078C11.26 5.43536 12.74 5.43536 13.65 3.93078L13.76 3.74869C14.23 2.99161 15.25 2.72328 16.04 3.17369L17.77 4.12244C18.68 4.62078 18.99 5.74203 18.47 6.60453C17.56 8.10911 18.3 9.33578 20.11 9.33578C21.15 9.33578 22.01 10.1503 22.01 11.1566V12.8432C22.01 13.8399 21.16 14.6641 20.11 14.6641C18.3 14.6641 17.56 15.8907 18.47 17.3953C18.99 18.2674 18.68 19.3791 17.77 19.8774L16.04 20.8262C15.25 21.2766 14.23 21.0082 13.76 20.2512L13.65 20.0691C12.75 18.5645 11.27 18.5645 10.36 20.0691L10.25 20.2512C9.78 21.0082 8.76 21.2766 7.97 20.8262L6.24 19.8774C5.33 19.3791 5.02 18.2578 5.54 17.3953C6.45 15.8907 5.71 14.6641 3.9 14.6641C2.85 14.6641 2 13.8399 2 12.8432Z" stroke="#002F0F" stroke-width="1.5625" stroke-miterlimit="10" stroke-linecap="round" stroke-linejoin="round"/>
<path d="M2 12.8432V11.1566C2 10.1599 2.85 9.33578 3.9 9.33578C5.71 9.33578 6.45 8.10911 5.54 6.60453C5.02 5.74203 5.33 4.62078 6.24 4.12244L7.97 3.17369C8.76 2.72328 9.78 2.99161 10.25 3.74869L10.36 3.93078C11.26 5.43536 12.74 5.43536 13.65 3.93078L13.76 3.74869C14.23 2.99161 15.25 2.72328 16.04 3.17369L17.77 4.12244C18.68 4.62078 18.99 5.74203 18.47 6.60453C17.56 8.10911 18.3 9.33578 20.11 9.33578C21.15 9.33578 22.01 10.1503 22.01 11.1566V12.8432C22.01 13.8399 21.16 14.6641 20.11 14.6641C18.3 14.6641 17.56 15.8907 18.47 17.3953C18.99 18.2674 18.68 19.3791 17.77 19.8774L16.04 20.8262C15.25 21.2766 14.23 21.0082 13.76 20.2512L13.65 20.0691C12.75 18.5645 11.27 18.5645 10.36 20.0691L10.25 20.2512C9.78 21.0082 8.76 21.2766 7.97 20.8262L6.24 19.8774C5.33 19.3791 5.02 18.2578 5.54 17.3953C6.45 15.8907 5.71 14.6641 3.9 14.6641C2.85 14.6641 2 13.8399 2 12.8432Z" stroke="#002F0F" stroke-opacity="0.2" stroke-width="1.5625" stroke-miterlimit="10" stroke-linecap="round" stroke-linejoin="round"/>
<path d="M2 12.8432V11.1566C2 10.1599 2.85 9.33578 3.9 9.33578C5.71 9.33578 6.45 8.10911 5.54 6.60453C5.02 5.74203 5.33 4.62078 6.24 4.12244L7.97 3.17369C8.76 2.72328 9.78 2.99161 10.25 3.74869L10.36 3.93078C11.26 5.43536 12.74 5.43536 13.65 3.93078L13.76 3.74869C14.23 2.99161 15.25 2.72328 16.04 3.17369L17.77 4.12244C18.68 4.62078 18.99 5.74203 18.47 6.60453C17.56 8.10911 18.3 9.33578 20.11 9.33578C21.15 9.33578 22.01 10.1503 22.01 11.1566V12.8432C22.01 13.8399 21.16 14.6641 20.11 14.6641C18.3 14.6641 17.56 15.8907 18.47 17.3953C18.99 18.2674 18.68 19.3791 17.77 19.8774L16.04 20.8262C15.25 21.2766 14.23 21.0082 13.76 20.2512L13.65 20.0691C12.75 18.5645 11.27 18.5645 10.36 20.0691L10.25 20.2512C9.78 21.0082 8.76 21.2766 7.97 20.8262L6.24 19.8774C5.33 19.3791 5.02 18.2578 5.54 17.3953C6.45 15.8907 5.71 14.6641 3.9 14.6641C2.85 14.6641 2 13.8399 2 12.8432Z" stroke="#002F0F" stroke-opacity="0.2" stroke-width="1.5625" stroke-miterlimit="10" stroke-linecap="round" stroke-linejoin="round"/>
<path d="M2 12.8432V11.1566C2 10.1599 2.85 9.33578 3.9 9.33578C5.71 9.33578 6.45 8.10911 5.54 6.60453C5.02 5.74203 5.33 4.62078 6.24 4.12244L7.97 3.17369C8.76 2.72328 9.78 2.99161 10.25 3.74869L10.36 3.93078C11.26 5.43536 12.74 5.43536 13.65 3.93078L13.76 3.74869C14.23 2.99161 15.25 2.72328 16.04 3.17369L17.77 4.12244C18.68 4.62078 18.99 5.74203 18.47 6.60453C17.56 8.10911 18.3 9.33578 20.11 9.33578C21.15 9.33578 22.01 10.1503 22.01 11.1566V12.8432C22.01 13.8399 21.16 14.6641 20.11 14.6641C18.3 14.6641 17.56 15.8907 18.47 17.3953C18.99 18.2674 18.68 19.3791 17.77 19.8774L16.04 20.8262C15.25 21.2766 14.23 21.0082 13.76 20.2512L13.65 20.0691C12.75 18.5645 11.27 18.5645 10.36 20.0691L10.25 20.2512C9.78 21.0082 8.76 21.2766 7.97 20.8262L6.24 19.8774C5.33 19.3791 5.02 18.2578 5.54 17.3953C6.45 15.8907 5.71 14.6641 3.9 14.6641C2.85 14.6641 2 13.8399 2 12.8432Z" stroke="#002F0F" stroke-opacity="0.2" stroke-width="1.5625" stroke-miterlimit="10" stroke-linecap="round" stroke-linejoin="round"/>
<path d="M2 12.8432V11.1566C2 10.1599 2.85 9.33578 3.9 9.33578C5.71 9.33578 6.45 8.10911 5.54 6.60453C5.02 5.74203 5.33 4.62078 6.24 4.12244L7.97 3.17369C8.76 2.72328 9.78 2.99161 10.25 3.74869L10.36 3.93078C11.26 5.43536 12.74 5.43536 13.65 3.93078L13.76 3.74869C14.23 2.99161 15.25 2.72328 16.04 3.17369L17.77 4.12244C18.68 4.62078 18.99 5.74203 18.47 6.60453C17.56 8.10911 18.3 9.33578 20.11 9.33578C21.15 9.33578 22.01 10.1503 22.01 11.1566V12.8432C22.01 13.8399 21.16 14.6641 20.11 14.6641C18.3 14.6641 17.56 15.8907 18.47 17.3953C18.99 18.2674 18.68 19.3791 17.77 19.8774L16.04 20.8262C15.25 21.2766 14.23 21.0082 13.76 20.2512L13.65 20.0691C12.75 18.5645 11.27 18.5645 10.36 20.0691L10.25 20.2512C9.78 21.0082 8.76 21.2766 7.97 20.8262L6.24 19.8774C5.33 19.3791 5.02 18.2578 5.54 17.3953C6.45 15.8907 5.71 14.6641 3.9 14.6641C2.85 14.6641 2 13.8399 2 12.8432Z" stroke="#002F0F" stroke-opacity="0.2" stroke-width="1.5625" stroke-miterlimit="10" stroke-linecap="round" stroke-linejoin="round"/>
<path d="M2 12.8432V11.1566C2 10.1599 2.85 9.33578 3.9 9.33578C5.71 9.33578 6.45 8.10911 5.54 6.60453C5.02 5.74203 5.33 4.62078 6.24 4.12244L7.97 3.17369C8.76 2.72328 9.78 2.99161 10.25 3.74869L10.36 3.93078C11.26 5.43536 12.74 5.43536 13.65 3.93078L13.76 3.74869C14.23 2.99161 15.25 2.72328 16.04 3.17369L17.77 4.12244C18.68 4.62078 18.99 5.74203 18.47 6.60453C17.56 8.10911 18.3 9.33578 20.11 9.33578C21.15 9.33578 22.01 10.1503 22.01 11.1566V12.8432C22.01 13.8399 21.16 14.6641 20.11 14.6641C18.3 14.6641 17.56 15.8907 18.47 17.3953C18.99 18.2674 18.68 19.3791 17.77 19.8774L16.04 20.8262C15.25 21.2766 14.23 21.0082 13.76 20.2512L13.65 20.0691C12.75 18.5645 11.27 18.5645 10.36 20.0691L10.25 20.2512C9.78 21.0082 8.76 21.2766 7.97 20.8262L6.24 19.8774C5.33 19.3791 5.02 18.2578 5.54 17.3953C6.45 15.8907 5.71 14.6641 3.9 14.6641C2.85 14.6641 2 13.8399 2 12.8432Z" stroke="#002F0F" stroke-opacity="0.2" stroke-width="1.5625" stroke-miterlimit="10" stroke-linecap="round" stroke-linejoin="round"/>
<path d="M2 12.8432V11.1566C2 10.1599 2.85 9.33578 3.9 9.33578C5.71 9.33578 6.45 8.10911 5.54 6.60453C5.02 5.74203 5.33 4.62078 6.24 4.12244L7.97 3.17369C8.76 2.72328 9.78 2.99161 10.25 3.74869L10.36 3.93078C11.26 5.43536 12.74 5.43536 13.65 3.93078L13.76 3.74869C14.23 2.99161 15.25 2.72328 16.04 3.17369L17.77 4.12244C18.68 4.62078 18.99 5.74203 18.47 6.60453C17.56 8.10911 18.3 9.33578 20.11 9.33578C21.15 9.33578 22.01 10.1503 22.01 11.1566V12.8432C22.01 13.8399 21.16 14.6641 20.11 14.6641C18.3 14.6641 17.56 15.8907 18.47 17.3953C18.99 18.2674 18.68 19.3791 17.77 19.8774L16.04 20.8262C15.25 21.2766 14.23 21.0082 13.76 20.2512L13.65 20.0691C12.75 18.5645 11.27 18.5645 10.36 20.0691L10.25 20.2512C9.78 21.0082 8.76 21.2766 7.97 20.8262L6.24 19.8774C5.33 19.3791 5.02 18.2578 5.54 17.3953C6.45 15.8907 5.71 14.6641 3.9 14.6641C2.85 14.6641 2 13.8399 2 12.8432Z" stroke="#002F0F" stroke-opacity="0.2" stroke-width="1.5625" stroke-miterlimit="10" stroke-linecap="round" stroke-linejoin="round"/>
<path d="M2 12.8432V11.1566C2 10.1599 2.85 9.33578 3.9 9.33578C5.71 9.33578 6.45 8.10911 5.54 6.60453C5.02 5.74203 5.33 4.62078 6.24 4.12244L7.97 3.17369C8.76 2.72328 9.78 2.99161 10.25 3.74869L10.36 3.93078C11.26 5.43536 12.74 5.43536 13.65 3.93078L13.76 3.74869C14.23 2.99161 15.25 2.72328 16.04 3.17369L17.77 4.12244C18.68 4.62078 18.99 5.74203 18.47 6.60453C17.56 8.10911 18.3 9.33578 20.11 9.33578C21.15 9.33578 22.01 10.1503 22.01 11.1566V12.8432C22.01 13.8399 21.16 14.6641 20.11 14.6641C18.3 14.6641 17.56 15.8907 18.47 17.3953C18.99 18.2674 18.68 19.3791 17.77 19.8774L16.04 20.8262C15.25 21.2766 14.23 21.0082 13.76 20.2512L13.65 20.0691C12.75 18.5645 11.27 18.5645 10.36 20.0691L10.25 20.2512C9.78 21.0082 8.76 21.2766 7.97 20.8262L6.24 19.8774C5.33 19.3791 5.02 18.2578 5.54 17.3953C6.45 15.8907 5.71 14.6641 3.9 14.6641C2.85 14.6641 2 13.8399 2 12.8432Z" stroke="#002F0F" stroke-opacity="0.2" stroke-width="1.5625" stroke-miterlimit="10" stroke-linecap="round" stroke-linejoin="round"/>
</svg>
