<svg width="23" height="24" viewBox="0 0 23 24" fill="none" xmlns="http://www.w3.org/2000/svg">
<path d="M20.8076 12.0621C20.8076 16.5206 20.8076 18.75 19.4225 20.135C18.0375 21.5201 15.8081 21.5201 11.3496 21.5201C6.89107 21.5201 4.66179 21.5201 3.2767 20.135C1.8916 18.75 1.8916 16.5206 1.8916 12.0621C1.8916 7.60356 1.8916 5.37428 3.2767 3.98919C4.66179 2.6041 6.89107 2.6041 11.3496 2.6041" stroke="#002F0F" stroke-width="1.25" stroke-linecap="round"/>
<path d="M20.8076 12.0621C20.8076 16.5206 20.8076 18.75 19.4225 20.135C18.0375 21.5201 15.8081 21.5201 11.3496 21.5201C6.89107 21.5201 4.66179 21.5201 3.2767 20.135C1.8916 18.75 1.8916 16.5206 1.8916 12.0621C1.8916 7.60356 1.8916 5.37428 3.2767 3.98919C4.66179 2.6041 6.89107 2.6041 11.3496 2.6041" stroke="#002F0F" stroke-opacity="0.2" stroke-width="1.25" stroke-linecap="round"/>
<path d="M20.8076 12.0621C20.8076 16.5206 20.8076 18.75 19.4225 20.135C18.0375 21.5201 15.8081 21.5201 11.3496 21.5201C6.89107 21.5201 4.66179 21.5201 3.2767 20.135C1.8916 18.75 1.8916 16.5206 1.8916 12.0621C1.8916 7.60356 1.8916 5.37428 3.2767 3.98919C4.66179 2.6041 6.89107 2.6041 11.3496 2.6041" stroke="#002F0F" stroke-opacity="0.2" stroke-width="1.25" stroke-linecap="round"/>
<path d="M20.8076 12.0621C20.8076 16.5206 20.8076 18.75 19.4225 20.135C18.0375 21.5201 15.8081 21.5201 11.3496 21.5201C6.89107 21.5201 4.66179 21.5201 3.2767 20.135C1.8916 18.75 1.8916 16.5206 1.8916 12.0621C1.8916 7.60356 1.8916 5.37428 3.2767 3.98919C4.66179 2.6041 6.89107 2.6041 11.3496 2.6041" stroke="#002F0F" stroke-opacity="0.2" stroke-width="1.25" stroke-linecap="round"/>
<path d="M20.8076 12.0621C20.8076 16.5206 20.8076 18.75 19.4225 20.135C18.0375 21.5201 15.8081 21.5201 11.3496 21.5201C6.89107 21.5201 4.66179 21.5201 3.2767 20.135C1.8916 18.75 1.8916 16.5206 1.8916 12.0621C1.8916 7.60356 1.8916 5.37428 3.2767 3.98919C4.66179 2.6041 6.89107 2.6041 11.3496 2.6041" stroke="#002F0F" stroke-opacity="0.2" stroke-width="1.25" stroke-linecap="round"/>
<path d="M20.8076 12.0621C20.8076 16.5206 20.8076 18.75 19.4225 20.135C18.0375 21.5201 15.8081 21.5201 11.3496 21.5201C6.89107 21.5201 4.66179 21.5201 3.2767 20.135C1.8916 18.75 1.8916 16.5206 1.8916 12.0621C1.8916 7.60356 1.8916 5.37428 3.2767 3.98919C4.66179 2.6041 6.89107 2.6041 11.3496 2.6041" stroke="#002F0F" stroke-opacity="0.2" stroke-width="1.25" stroke-linecap="round"/>
<path d="M20.8076 12.0621C20.8076 16.5206 20.8076 18.75 19.4225 20.135C18.0375 21.5201 15.8081 21.5201 11.3496 21.5201C6.89107 21.5201 4.66179 21.5201 3.2767 20.135C1.8916 18.75 1.8916 16.5206 1.8916 12.0621C1.8916 7.60356 1.8916 5.37428 3.2767 3.98919C4.66179 2.6041 6.89107 2.6041 11.3496 2.6041" stroke="#002F0F" stroke-opacity="0.2" stroke-width="1.25" stroke-linecap="round"/>
<path d="M20.8076 12.0621C20.8076 16.5206 20.8076 18.75 19.4225 20.135C18.0375 21.5201 15.8081 21.5201 11.3496 21.5201C6.89107 21.5201 4.66179 21.5201 3.2767 20.135C1.8916 18.75 1.8916 16.5206 1.8916 12.0621C1.8916 7.60356 1.8916 5.37428 3.2767 3.98919C4.66179 2.6041 6.89107 2.6041 11.3496 2.6041" stroke="#002F0F" stroke-opacity="0.2" stroke-width="1.25" stroke-linecap="round"/>
<path d="M15.2793 3.96053L17.5089 5.89277C19.0436 7.22288 19.811 7.88794 19.811 8.75171C19.811 9.61547 19.0436 10.2805 17.5089 11.6106L15.2793 13.5429C14.6045 14.1278 14.267 14.4202 13.9906 14.2939C13.7141 14.1677 13.7141 13.7212 13.7141 12.8281V11.3864C10.8767 11.3864 7.80286 12.7039 6.62061 14.8994C6.62061 7.87346 10.8241 6.11697 13.7141 6.11697V4.67526C13.7141 3.78221 13.7141 3.33569 13.9906 3.20945C14.267 3.08321 14.6045 3.37564 15.2793 3.96053Z" stroke="#002F0F" stroke-width="1.25" stroke-linecap="round" stroke-linejoin="round"/>
<path d="M15.2793 3.96053L17.5089 5.89277C19.0436 7.22288 19.811 7.88794 19.811 8.75171C19.811 9.61547 19.0436 10.2805 17.5089 11.6106L15.2793 13.5429C14.6045 14.1278 14.267 14.4202 13.9906 14.2939C13.7141 14.1677 13.7141 13.7212 13.7141 12.8281V11.3864C10.8767 11.3864 7.80286 12.7039 6.62061 14.8994C6.62061 7.87346 10.8241 6.11697 13.7141 6.11697V4.67526C13.7141 3.78221 13.7141 3.33569 13.9906 3.20945C14.267 3.08321 14.6045 3.37564 15.2793 3.96053Z" stroke="#002F0F" stroke-opacity="0.2" stroke-width="1.25" stroke-linecap="round" stroke-linejoin="round"/>
<path d="M15.2793 3.96053L17.5089 5.89277C19.0436 7.22288 19.811 7.88794 19.811 8.75171C19.811 9.61547 19.0436 10.2805 17.5089 11.6106L15.2793 13.5429C14.6045 14.1278 14.267 14.4202 13.9906 14.2939C13.7141 14.1677 13.7141 13.7212 13.7141 12.8281V11.3864C10.8767 11.3864 7.80286 12.7039 6.62061 14.8994C6.62061 7.87346 10.8241 6.11697 13.7141 6.11697V4.67526C13.7141 3.78221 13.7141 3.33569 13.9906 3.20945C14.267 3.08321 14.6045 3.37564 15.2793 3.96053Z" stroke="#002F0F" stroke-opacity="0.2" stroke-width="1.25" stroke-linecap="round" stroke-linejoin="round"/>
<path d="M15.2793 3.96053L17.5089 5.89277C19.0436 7.22288 19.811 7.88794 19.811 8.75171C19.811 9.61547 19.0436 10.2805 17.5089 11.6106L15.2793 13.5429C14.6045 14.1278 14.267 14.4202 13.9906 14.2939C13.7141 14.1677 13.7141 13.7212 13.7141 12.8281V11.3864C10.8767 11.3864 7.80286 12.7039 6.62061 14.8994C6.62061 7.87346 10.8241 6.11697 13.7141 6.11697V4.67526C13.7141 3.78221 13.7141 3.33569 13.9906 3.20945C14.267 3.08321 14.6045 3.37564 15.2793 3.96053Z" stroke="#002F0F" stroke-opacity="0.2" stroke-width="1.25" stroke-linecap="round" stroke-linejoin="round"/>
<path d="M15.2793 3.96053L17.5089 5.89277C19.0436 7.22288 19.811 7.88794 19.811 8.75171C19.811 9.61547 19.0436 10.2805 17.5089 11.6106L15.2793 13.5429C14.6045 14.1278 14.267 14.4202 13.9906 14.2939C13.7141 14.1677 13.7141 13.7212 13.7141 12.8281V11.3864C10.8767 11.3864 7.80286 12.7039 6.62061 14.8994C6.62061 7.87346 10.8241 6.11697 13.7141 6.11697V4.67526C13.7141 3.78221 13.7141 3.33569 13.9906 3.20945C14.267 3.08321 14.6045 3.37564 15.2793 3.96053Z" stroke="#002F0F" stroke-opacity="0.2" stroke-width="1.25" stroke-linecap="round" stroke-linejoin="round"/>
<path d="M15.2793 3.96053L17.5089 5.89277C19.0436 7.22288 19.811 7.88794 19.811 8.75171C19.811 9.61547 19.0436 10.2805 17.5089 11.6106L15.2793 13.5429C14.6045 14.1278 14.267 14.4202 13.9906 14.2939C13.7141 14.1677 13.7141 13.7212 13.7141 12.8281V11.3864C10.8767 11.3864 7.80286 12.7039 6.62061 14.8994C6.62061 7.87346 10.8241 6.11697 13.7141 6.11697V4.67526C13.7141 3.78221 13.7141 3.33569 13.9906 3.20945C14.267 3.08321 14.6045 3.37564 15.2793 3.96053Z" stroke="#002F0F" stroke-opacity="0.2" stroke-width="1.25" stroke-linecap="round" stroke-linejoin="round"/>
<path d="M15.2793 3.96053L17.5089 5.89277C19.0436 7.22288 19.811 7.88794 19.811 8.75171C19.811 9.61547 19.0436 10.2805 17.5089 11.6106L15.2793 13.5429C14.6045 14.1278 14.267 14.4202 13.9906 14.2939C13.7141 14.1677 13.7141 13.7212 13.7141 12.8281V11.3864C10.8767 11.3864 7.80286 12.7039 6.62061 14.8994C6.62061 7.87346 10.8241 6.11697 13.7141 6.11697V4.67526C13.7141 3.78221 13.7141 3.33569 13.9906 3.20945C14.267 3.08321 14.6045 3.37564 15.2793 3.96053Z" stroke="#002F0F" stroke-opacity="0.2" stroke-width="1.25" stroke-linecap="round" stroke-linejoin="round"/>
<path d="M15.2793 3.96053L17.5089 5.89277C19.0436 7.22288 19.811 7.88794 19.811 8.75171C19.811 9.61547 19.0436 10.2805 17.5089 11.6106L15.2793 13.5429C14.6045 14.1278 14.267 14.4202 13.9906 14.2939C13.7141 14.1677 13.7141 13.7212 13.7141 12.8281V11.3864C10.8767 11.3864 7.80286 12.7039 6.62061 14.8994C6.62061 7.87346 10.8241 6.11697 13.7141 6.11697V4.67526C13.7141 3.78221 13.7141 3.33569 13.9906 3.20945C14.267 3.08321 14.6045 3.37564 15.2793 3.96053Z" stroke="#002F0F" stroke-opacity="0.2" stroke-width="1.25" stroke-linecap="round" stroke-linejoin="round"/>
</svg>
